<svg xmlns="http://www.w3.org/2000/svg" enable-background="new 0 0 512.006 512.006" height="512.006" width="512.006" style=""><rect id="backgroundrect" width="100%" height="100%" x="0" y="0" fill="none" stroke="none"/><g class="currentLayer" style=""><title>Layer 1</title><path d="m184.002 368.002h-7.572c-7.082 0-13.578-4.432-15.689-11.192-2.556-8.187 1.723-16.748 9.521-19.738l120.016-46.159c8.429-3.242 12.477-12.799 8.999-21.134-47.344-113.465-59.191-253.421-59.325-255.067-1.219-15.054-20.837-20.202-29.26-7.59l-23.13 34.69-34.68-23.12c-9.179-6.127-21.719-1.313-24.4 9.43l-10.5 41.97-29.1-19.4c-9.179-6.127-21.719-1.313-24.4 9.43l-10.5 41.97-29.1-19.4c-11.086-7.391-25.874 1.264-24.83 14.55.32 4.15 8.23 102.86 38.24 203.34 17.88 59.85 39.98 107.77 65.68 142.45 18.034 24.311 45.676 36.97 73.602 36.97h5.579c30.732 0 56.376-24.405 56.843-55.134.475-31.275-24.826-56.866-55.994-56.866zm-102.86-170.06c-3.28-8.2.71-17.51 8.92-20.8l80-32c8.2-3.28 17.51.71 20.8 8.92 3.28 8.2-.71 17.51-8.92 20.8-86.636 34.654-81.523 33.14-85.94 33.14-6.34 0-12.35-3.8-14.86-10.06zm36.8 72.92c-8.085 3.234-17.472-.619-20.8-8.92-3.28-8.2.71-17.51 8.92-20.8l80-32c8.2-3.28 17.51.71 20.8 8.92 3.28 8.2-.71 17.51-8.92 20.8zm314.06 1.14c-4.179 0 4.086-2.709-111.59 41.78-.141-.234-77.388 29.589-77.257 29.538-5.69 2.189-6.909 9.647-2.262 13.593 48.686 41.344 38.574 118.94-19.023 146.514-4.3 2.059-2.859 8.567 1.908 8.575 13.287.022 26.037-3.221 37.184-9.04l172.53-71.04c3.28-.3 6.28-1.59 8.68-3.57 46.758-19.245 44.562-17.829 47.74-21.15 48.334-50.675 12.124-135.2-57.91-135.2z" id="svg_1"/></g></svg>