<svg id="Capa_1" enable-background="new 0 0 512 512" height="512" viewBox="0 0 512 512" width="512" xmlns="http://www.w3.org/2000/svg"><g><path d="m487 148c13.79 0 25-11.21 25-25v-98c0-13.79-11.21-25-25-25h-202c-13.79 0-25 11.21-25 25v98c0 13.79 11.21 25 25 25h23v45.21h-112v-56.89c0-13.79-11.21-25-25-25h-71c-13.79 0-25 11.21-25 25v56.89h-50c-13.79 0-25 11.22-25 25v268.79c0 13.79 11.21 25 25 25h462c13.79 0 25-11.21 25-25 0-10.124 0-258.533 0-268.79 0-13.78-11.21-25-25-25h-23v-45.21zm-197-118h192v88h-192zm-185 111.32h61v145.83h-61c0-7.102 0-137.398 0-145.83zm377 340.68h-452v-70.9h452zm0-100.9h-452v-157.89h45v63.945h-.375c-8.284 0-15 6.716-15 15s6.716 15 15 15h121.75c8.284 0 15-6.716 15-15s-6.716-15-15-15h-.375v-63.945h286zm-48-187.89h-96v-45.21h96z"/><path d="m293.5 254.154h-11.5c-8.284 0-15 6.716-15 15s6.716 15 15 15h11.5c8.284 0 15-6.716 15-15s-6.716-15-15-15z"/><path d="m293.5 320.163h-11.5c-8.284 0-15 6.716-15 15s6.716 15 15 15h11.5c8.284 0 15-6.716 15-15s-6.716-15-15-15z"/><path d="m365 254.154h-11.5c-8.284 0-15 6.716-15 15s6.716 15 15 15h11.5c8.284 0 15-6.716 15-15s-6.716-15-15-15z"/><path d="m365 320.163h-11.5c-8.284 0-15 6.716-15 15s6.716 15 15 15h11.5c8.284 0 15-6.716 15-15s-6.716-15-15-15z"/><path d="m436.5 254.154h-11.5c-8.284 0-15 6.716-15 15s6.716 15 15 15h11.5c8.284 0 15-6.716 15-15s-6.716-15-15-15z"/><path d="m436.5 320.163h-11.5c-8.284 0-15 6.716-15 15s6.716 15 15 15h11.5c8.284 0 15-6.716 15-15s-6.716-15-15-15z"/></g></svg>