<svg height="480pt" viewBox="-8 0 480 480.864" width="480pt" xmlns="http://www.w3.org/2000/svg">
    <path d="m64.433594 384.433594h16v16h-16zm0 0"/>
    <path d="m96.433594 384.433594h16v16h-16zm0 0"/>
    <path d="m128.433594 384.433594h16v16h-16zm0 0"/>
    <path d="m160.433594 384.433594h16v16h-16zm0 0"/>
    <path d="m192.433594 384.433594h16v16h-16zm0 0"/>
    <path d="m224.433594 384.433594h16v16h-16zm0 0"/>
    <path d="m256.433594 384.433594h16v16h-16zm0 0"/>
    <path d="m288.433594 384.433594h16v16h-16zm0 0"/>
    <path d="m320.433594 384.433594h16v16h-16zm0 0"/>
    <path d="m352.433594 384.433594h16v16h-16zm0 0"/>
    <path d="m384.433594 384.433594h16v16h-16zm0 0"/>
    <path d="m416.433594 384.433594h16v16h-16zm0 0"/>
    <path d="m448.433594 384.433594h16v16h-16zm0 0"/>
    <path d="m448.433594 160.433594h16v16h-16zm0 0"/>
    <path d="m448.433594 128.433594h16v16h-16zm0 0"/>
    <path d="m448.433594 192.433594h16v16h-16zm0 0"/>
    <path d="m448.433594 224.433594h16v16h-16zm0 0"/>
    <path d="m448.433594 256.433594h16v16h-16zm0 0"/>
    <path d="m448.433594 288.433594h16v16h-16zm0 0"/>
    <path d="m448.433594 320.433594h16v16h-16zm0 0"/>
    <path d="m448.433594 352.433594h16v16h-16zm0 0"/>
    <path d="m224.433594 16.433594c49.640625-.269532 98.777344 9.992187 144.167968 30.101562l-24.609374 6.59375 4.144531 15.457032 54.09375-14.496094-14.496094-54.089844-15.453125 4.136719 8.152344 30.375c-48.859375-22.707031-102.125-34.347657-156-34.078125-66.3125-.761719-131.511719 17.0625-188.210938 51.453125l8.449219 13.601562c54.164063-32.8125 116.4375-49.804687 179.761719-49.054687zm0 0"/><path d="m208.433594 464.433594c-49.640625.265625-98.777344-9.996094-144.160156-30.105469l24.597656-6.59375-4.144532-15.453125-54.078124 14.496094 14.496093 54.085937 15.457031-4.136719-8.144531-30.398437c48.84375 22.71875 102.105469 34.363281 155.976563 34.105469 66.308594.761718 131.507812-17.0625 188.207031-51.457032l-8.449219-13.601562c-54.164062 32.816406-116.433594 49.808594-179.757812 49.058594zm0 0"/><path d="m224.433594 208.433594c0 17.671875-14.328125 32-32 32-17.675782 0-32-14.328125-32-32 0-17.675782 14.324218-32 32-32 17.671875 0 32 14.324218 32 32zm0 0"/><path d="m71.769531 288.433594h241.328125c3.441406-20.128906 19.207032-35.894532 39.335938-39.335938v-81.328125c-20.128906-3.441406-35.894532-19.210937-39.335938-39.335937h-241.328125c-3.441406 20.125-19.210937 35.894531-39.335937 39.335937v81.328125c20.125 3.441406 35.894531 19.207032 39.335937 39.335938zm200.664063-88h48v16h-48zm-80-40c26.507812 0 48 21.488281 48 48 0 26.507812-21.492188 48-48 48-26.511719 0-48-21.492188-48-48 .023437-26.5 21.5-47.976563 48-48zm-128 40h48v16h-48zm0 0"/><path d="m40.433594 352.433594h376v-232h-16v216h-360zm0 0"/><path d="m.433594 320.433594h384v-224h-384zm16-168h8c17.671875 0 32-14.328125 32-32v-8h272v8c0 17.671875 14.324218 32 32 32h8v112h-8c-17.675782 0-32 14.324218-32 32v8h-272v-8c0-17.675782-14.328125-32-32-32h-8zm0 0"/>
</svg>