<svg height="480pt" viewBox="0 0 480 480.864" width="480pt" xmlns="http://www.w3.org/2000/svg"><path d="m416.433594 80.433594h-416v256h40v32h408v-264h-32zm-400 16h384v224h-384zm416 24v232h-376v-16h360v-216zm0 0"/><path d="m80.433594 384.433594h16v16h-16zm0 0"/><path d="m112.433594 384.433594h16v16h-16zm0 0"/><path d="m144.433594 384.433594h16v16h-16zm0 0"/><path d="m176.433594 384.433594h16v16h-16zm0 0"/><path d="m208.433594 384.433594h16v16h-16zm0 0"/><path d="m240.433594 384.433594h16v16h-16zm0 0"/><path d="m272.433594 384.433594h16v16h-16zm0 0"/><path d="m304.433594 384.433594h16v16h-16zm0 0"/><path d="m336.433594 384.433594h16v16h-16zm0 0"/><path d="m368.433594 384.433594h16v16h-16zm0 0"/><path d="m400.433594 384.433594h16v16h-16zm0 0"/><path d="m432.433594 384.433594h16v16h-16zm0 0"/><path d="m464.433594 384.433594h16v16h-16zm0 0"/><path d="m464.433594 160.433594h16v16h-16zm0 0"/><path d="m464.433594 128.433594h16v16h-16zm0 0"/><path d="m464.433594 192.433594h16v16h-16zm0 0"/><path d="m464.433594 224.433594h16v16h-16zm0 0"/><path d="m464.433594 256.433594h16v16h-16zm0 0"/><path d="m464.433594 288.433594h16v16h-16zm0 0"/><path d="m464.433594 320.433594h16v16h-16zm0 0"/><path d="m464.433594 352.433594h16v16h-16zm0 0"/><path d="m240.433594 16.433594c49.640625-.269532 98.777344 9.992187 144.167968 30.101562l-24.609374 6.59375 4.144531 15.457032 54.09375-14.496094-14.496094-54.089844-15.453125 4.136719 8.152344 30.375c-48.859375-22.707031-102.125-34.347657-156-34.078125-66.3125-.761719-131.511719 17.0625-188.210938 51.453125l8.449219 13.601562c54.164063-32.8125 116.4375-49.804687 179.761719-49.054687zm0 0"/><path d="m224.433594 464.433594c-49.640625.265625-98.777344-9.996094-144.160156-30.105469l24.597656-6.59375-4.144532-15.453125-54.078124 14.496094 14.496093 54.085937 15.457031-4.136719-8.144531-30.398437c48.84375 22.71875 102.105469 34.363281 155.976563 34.105469 66.308594.761718 131.507812-17.0625 188.207031-51.457032l-8.449219-13.601562c-54.164062 32.816406-116.433594 49.808594-179.757812 49.058594zm0 0"/><path d="m208.433594 160.433594c-26.511719 0-48 21.488281-48 48 0 26.507812 21.488281 48 48 48 26.507812 0 48-21.492188 48-48-.027344-26.5-21.503906-47.976563-48-48zm0 80c-17.675782 0-32-14.328125-32-32 0-17.675782 14.324218-32 32-32 17.671875 0 32 14.324218 32 32 0 17.671875-14.328125 32-32 32zm0 0"/><path d="m344.433594 120.433594v-8h-272v8c0 17.671875-14.328125 32-32 32h-8v112h8c17.671875 0 32 14.324218 32 32v8h272v-8c0-17.675782 14.324218-32 32-32h8v-112h-8c-17.675782 0-32-14.328125-32-32zm24 128.664062c-20.128906 3.441406-35.894532 19.207032-39.335938 39.335938h-241.328125c-3.441406-20.128906-19.210937-35.894532-39.335937-39.335938v-81.328125c20.125-3.441406 35.894531-19.210937 39.335937-39.335937h241.328125c3.441406 20.125 19.207032 35.894531 39.335938 39.335937zm0 0"/><path d="m288.433594 200.433594h48v16h-48zm0 0"/><path d="m80.433594 200.433594h48v16h-48zm0 0"/></svg>