<svg id="Capa_1" enable-background="new 0 0 512 512" height="512" viewBox="0 0 512 512" width="512" xmlns="http://www.w3.org/2000/svg"><g><path d="m379.928 268.193c0-16.568-13.432-30-30-30h-187.856c-16.569 0-30 13.432-30 30v44.357h247.856z"/><path d="m349.928 208.193c10.925 0 21.167 2.949 30 8.072v-184.398c0-17.6-14.267-31.867-31.867-31.867h-184.122c-17.6 0-31.867 14.267-31.867 31.867v184.398c8.833-5.123 19.075-8.072 30-8.072z"/><path d="m102.072 253.193v-30h-1.867c-9.301 0-16.867-7.566-16.867-16.867v-67.832h-53.241v30h23.241v37.832c0 25.843 21.024 46.867 46.867 46.867z"/><path d="m428.662 138.494v67.832c0 9.301-7.566 16.867-16.867 16.867h-1.867v30h1.867c25.843 0 46.867-21.024 46.867-46.867v-37.832h23.241v-30z"/><path d="m422 456.023v-8.139c0-24.813-20.187-45-45-45h-94.667v-65h-52.667v65h-94.666c-24.813 0-45 20.187-45 45v8.139c-8.964 5.188-15 14.874-15 25.977 0 16.569 13.431 30 30 30s30-13.431 30-30c0-11.102-6.036-20.789-15-25.977v-8.139c0-8.271 6.729-15 15-15h106v23.139c-8.964 5.188-15 14.874-15 25.977 0 16.569 13.431 30 30 30s30-13.431 30-30c0-11.102-6.036-20.789-15-25.977v-23.139h106c8.271 0 15 6.729 15 15v8.139c-8.964 5.188-15 14.874-15 25.977 0 16.569 13.431 30 30 30 16.568 0 30-13.431 30-30 0-11.102-6.036-20.789-15-25.977z"/></g></svg>