<svg xmlns="http://www.w3.org/2000/svg" xmlns:xlink="http://www.w3.org/1999/xlink" width="32" height="31" viewBox="0 0 32 31">
  <defs>
    <clipPath id="clip-Date">
      <rect width="32" height="31"/>
    </clipPath>
  </defs>
  <g id="Date" clip-path="url(#clip-Date)">
    <g id="Group_169" data-name="Group 169" transform="translate(24 -351)">
      <g id="Group_110" data-name="Group 110" transform="translate(-19 355)">
        <path id="Path_256" data-name="Path 256" d="M4.491,1.361c0-.343-.069-.59.014-.741.151-.261.37-.59.631-.659a.554.554,0,0,1,.7.631c-.069.741.329.782.906.782q5.043-.021,10.086-.014h.741c.206-.563-.123-1.427.8-1.413.878.014.6.8.741,1.413.4,0,.81-.014,1.208,0a2.907,2.907,0,0,1,3.115,3.2c0,5.173.014,10.333,0,15.506a2.879,2.879,0,0,1-3.183,3.183q-8.5.021-17,0A2.884,2.884,0,0,1,.1,20.092V4.655A2.964,2.964,0,0,1,3.407,1.348C3.723,1.361,4.066,1.361,4.491,1.361Zm7.286,4.322c-3.17,0-6.353.014-9.523-.014-.645,0-.8.206-.8.823.027,4.5.014,9,.014,13.5,0,1.3.576,1.88,1.88,1.88h16.8c1.345,0,1.907-.576,1.907-1.921,0-4.5-.014-9,.014-13.5,0-.59-.137-.782-.755-.782C18.131,5.711,14.947,5.7,11.777,5.684ZM1.527,4.243H22c-.137-.974-.6-1.427-1.468-1.455s-1.729,0-2.607,0H3.2A1.441,1.441,0,0,0,1.527,4.243Z" transform="translate(-0.1 0.06)" fill="#848caa"/>
        <path id="Path_257" data-name="Path 257" d="M77.446,122.378c0,.892.014,1.7-.014,2.511,0,.123-.247.329-.384.343-.8.027-1.592.014-2.47.014,0-.892-.014-1.715.014-2.525a.452.452,0,0,1,.316-.329C75.717,122.365,76.541,122.378,77.446,122.378Z" transform="translate(-64.356 -105.575)" fill="#848caa"/>
        <path id="Path_258" data-name="Path 258" d="M74.5,91.826c0-1.455,0-1.455,1.427-1.441,1.468,0,1.468,0,1.455,1.5-.014,1.372-.014,1.372-1.372,1.386h-.069C74.5,93.281,74.5,93.281,74.5,91.826Z" transform="translate(-64.291 -77.973)" fill="#848caa"/>
        <path id="Path_259" data-name="Path 259" d="M74.478,61.174c0-.906-.014-1.7.014-2.5,0-.137.261-.357.412-.37a16.94,16.94,0,0,1,2.045,0,.588.588,0,0,1,.384.4,16.942,16.942,0,0,1,0,2.045c-.014.151-.233.4-.37.4C76.18,61.187,75.384,61.174,74.478,61.174Z" transform="translate(-64.269 -50.27)" fill="#848caa"/>
        <path id="Path_260" data-name="Path 260" d="M35.1,125.5H32.3v-2.8h2.8Z" transform="translate(-27.882 -105.855)" fill="#848caa"/>
        <path id="Path_261" data-name="Path 261" d="M32.2,61.572V58.8H35v2.772Z" transform="translate(-27.795 -50.723)" fill="#848caa"/>
        <path id="Path_262" data-name="Path 262" d="M120.113,90.8v2.758H117.3V90.8Z" transform="translate(-101.218 -78.332)" fill="#848caa"/>
        <path id="Path_263" data-name="Path 263" d="M117.6,58.7h2.772v2.786H117.6C117.6,60.58,117.6,59.688,117.6,58.7Z" transform="translate(-101.477 -50.637)" fill="#848caa"/>
        <path id="Path_264" data-name="Path 264" d="M35.086,90.7v2.786H32.3V90.7Z" transform="translate(-27.882 -78.246)" fill="#848caa"/>
      </g>
    </g>
  </g>
</svg>
