<?xml version="1.0" encoding="iso-8859-1"?>
<!-- Generator: Adobe Illustrator 19.0.0, SVG Export Plug-In . SVG Version: 6.00 Build 0)  -->
<svg version="1.1" id="Capa_1" xmlns="http://www.w3.org/2000/svg" xmlns:xlink="http://www.w3.org/1999/xlink" x="0px" y="0px"
	 viewBox="0 0 511.999 511.999" style="enable-background:new 0 0 511.999 511.999;" xml:space="preserve">
<g>
	<g>
		<path d="M434.927,191.435l-0.772-1.045l-0.153-0.306l-70.11-104.078l-70.111,104.079l-0.146,0.292l-0.779,1.059
			c-11.25,15.236-17.196,33.337-17.196,52.348c0,48.652,39.581,88.231,88.231,88.231c48.65,0,88.231-39.58,88.231-88.231
			C452.124,224.772,446.177,206.669,434.927,191.435z"/>
	</g>
</g>
<g>
	<g>
		<path d="M363.893,362.077c-65.228,0-118.293-53.066-118.293-118.293c0-25.356,7.899-49.517,22.846-69.895l46.089-68.419L243.484,0
			L95.449,219.753c-23.275,31.674-35.574,69.228-35.574,108.636c0,101.243,82.367,183.61,183.61,183.61
			c95.929,0,174.899-73.951,182.925-167.838C408.259,355.508,386.831,362.077,363.893,362.077z"/>
	</g>
</g>
<g>
</g>
<g>
</g>
<g>
</g>
<g>
</g>
<g>
</g>
<g>
</g>
<g>
</g>
<g>
</g>
<g>
</g>
<g>
</g>
<g>
</g>
<g>
</g>
<g>
</g>
<g>
</g>
<g>
</g>
</svg>
