<svg width="640" height="512" xmlns="http://www.w3.org/2000/svg" class="svg-inline--fa fa-flashlight fa-w-20">

 <g>
  <title>background</title>
  <rect fill="none" id="canvas_background" height="514" width="514" y="-1" x="-1"/>
 </g>
 <g>
  <title>Layer 1</title>
  <path id="svg_1" d="m384,160l-352,0a32,32 0 0 0 -32,32l0,128a32,32 0 0 0 32,32l352,0l16.12,10.75c43.14,28.76 92.62,45.67 143.88,50.89l0,-315.28c-51.26,5.22 -100.74,22.13 -143.88,50.89l-16.12,10.75zm-79.88,117.25l-32,0a32,32 0 0 1 0,-64l32,0a32,32 0 0 1 0,64zm303.88,-181.25l-32,0l0,320l32,0a32,32 0 0 0 32,-32l0,-256a32,32 0 0 0 -32,-32z" fill="currentColor"/>
 </g>
</svg>