<?xml version="1.0"?>
<svg xmlns="http://www.w3.org/2000/svg" xmlns:xlink="http://www.w3.org/1999/xlink" version="1.1" id="Capa_1" x="0px" y="0px" viewBox="0 0 468.293 468.293" style="enable-background:new 0 0 468.293 468.293;" xml:space="preserve" width="512px" height="512px" class=""><g transform="matrix(0.9801 0 0 0.9801 4.65951 4.65951)"><path style="fill:#1C75A1" d="M452.943,346.112H0v-76.839h468.293v61.49C468.293,339.24,461.42,346.112,452.943,346.112z" data-original="#1C75A1" class=""/><polygon style="fill:#0677ED" points="468.293,269.273 368.767,128.767 273.633,128.767 273.633,269.273 " data-original="#E56353" class="" data-old_color="#E56353"/><polygon style="fill:#D5D6DB" points="285.342,144.135 359.254,144.135 411.212,218.047 285.342,218.047 " data-original="#D5D6DB" class=""/><polygon style="fill:#E1E6E9" points="411.212,218.047 361.412,144.135 290.57,144.135 " data-original="#E1E6E9" class=""/><rect y="67.297" style="fill:#EB696D" width="273.633" height="201.99" data-original="#27A2DB" class="" data-old_color="#27A2DB"/><path style="fill:#FCD462" d="M0,342.819h36.909c6.897,0,12.488-5.591,12.488-12.488V320.18c0-6.897-5.591-12.488-12.488-12.488H0  V342.819z" data-original="#FCD462" class=""/><path style="fill:#0677ED" d="M0,304.399h36.909c6.897,0,12.488-5.591,12.488-12.488v-10.151c0-6.897-5.591-12.488-12.488-12.488H0  V304.399z" data-original="#E56353" class="" data-old_color="#E56353"/><path style="fill:#E1E6E9" d="M418.896,269.273h36.909c6.897,0,12.488,5.591,12.488,12.488v10.151  c0,6.897-5.591,12.488-12.488,12.488h-36.909V269.273z" data-original="#E1E6E9" class=""/><rect x="255.313" y="67.297" style="fill:#64A1D0" width="21.504" height="201.99" data-original="#CE412D" class="active-path" data-old_color="#CE412D"/><circle style="fill:#2F4859" cx="360.773" cy="346.112" r="54.884" data-original="#2F4859" class="" data-old_color="#2F4859"/><circle style="fill:#E1E6E9" cx="360.773" cy="346.112" r="37.838" data-original="#E1E6E9" class=""/><g>
	<circle style="fill:#2F4859" cx="360.773" cy="346.112" r="15.766" data-original="#2F4859" class="" data-old_color="#2F4859"/>
	<circle style="fill:#2F4859" cx="104.273" cy="346.112" r="54.884" data-original="#2F4859" class="" data-old_color="#2F4859"/>
</g><circle style="fill:#E1E6E9" cx="104.273" cy="346.112" r="37.838" data-original="#E1E6E9" class=""/><circle style="fill:#2F4859" cx="104.273" cy="346.112" r="15.766" data-original="#2F4859" class="" data-old_color="#2F4859"/></g> </svg>
