<svg xmlns="http://www.w3.org/2000/svg" xmlns:xlink="http://www.w3.org/1999/xlink" width="45" height="37" viewBox="0 0 45 37">
  <defs>
    <clipPath id="clip-License_Details">
      <rect width="45" height="37"/>
    </clipPath>
  </defs>
  <g id="License_Details" data-name="License Details" clip-path="url(#clip-License_Details)">
    <g id="Group_180" data-name="Group 180" transform="translate(5 5.49)">
      <g id="Group_119" data-name="Group 119">
        <path id="Path_265" data-name="Path 265" d="M31.408,26.815H4.592A4.585,4.585,0,0,1,0,22.223V4.592A4.585,4.585,0,0,1,4.592,0H31.408A4.585,4.585,0,0,1,36,4.592V22.264A4.576,4.576,0,0,1,31.408,26.815ZM4.592,1.64A2.94,2.94,0,0,0,1.64,4.592V22.264a2.94,2.94,0,0,0,2.952,2.952H31.408a2.94,2.94,0,0,0,2.952-2.952V4.592A2.94,2.94,0,0,0,31.408,1.64Z" fill="#233167"/>
      </g>
      <g id="Group_124" data-name="Group 124" transform="translate(20.829 4.879)">
        <g id="Group_121" data-name="Group 121" transform="translate(1.968)">
          <g id="Group_120" data-name="Group 120">
            <path id="Path_266" data-name="Path 266" d="M58.8,18.3A3.2,3.2,0,1,1,62,15.1,3.2,3.2,0,0,1,58.8,18.3Zm0-4.387A1.189,1.189,0,1,0,59.987,15.1,1.246,1.246,0,0,0,58.8,13.909Z" transform="translate(-55.6 -11.9)" fill="#233167"/>
          </g>
        </g>
        <g id="Group_123" data-name="Group 123" transform="translate(0 6.806)">
          <g id="Group_122" data-name="Group 122">
            <path id="Path_267" data-name="Path 267" d="M61.092,37.315H50.8V31.124L56.048,28.5l5.043,2.665ZM52.85,35.306h6.232V32.354l-3.034-1.6-3.2,1.6Z" transform="translate(-50.8 -28.5)" fill="#233167"/>
          </g>
        </g>
      </g>
      <g id="Group_125" data-name="Group 125" transform="translate(4.756 8.61)">
        <rect id="Rectangle_105" data-name="Rectangle 105" width="11.768" height="1.64" fill="#233167"/>
      </g>
      <g id="Group_126" data-name="Group 126" transform="translate(4.756 13.941)">
        <rect id="Rectangle_106" data-name="Rectangle 106" width="8.692" height="1.64" fill="#233167"/>
      </g>
    </g>
  </g>
</svg>
