<svg version="1.0" width="1024.000000pt" height="1024.000000pt" viewBox="0 0 1024.000000 1024.000000" preserveAspectRatio="xMidYMid meet" xmlns="http://www.w3.org/2000/svg">
    <defs></defs>
    <g transform="matrix(0.191871, 0, 0, -0.210791, -469.811798, 1590.759155)" fill="#000000" stroke="none" style="">
        <path d="M6480 7510 c-30 -16 -62 -32 -70 -35 -16 -7 -90 -98 -90 -112 0 -4
-8 -21 -17 -38 -10 -19 -18 -63 -21 -123 l-4 -93 -42 -26 c-34 -22 -140 -123
-190 -183 -23 -27 -87 -167 -93 -204 -3 -20 -10 -39 -14 -42 -5 -3 -9 -56 -10
-117 -1 -199 -27 -390 -65 -482 -59 -141 -96 -218 -111 -228 -7 -4 -13 -12
-13 -18 0 -5 -4 -15 -10 -22 -5 -7 -31 -39 -57 -72 -55 -69 -60 -74 -135 -137
-73 -62 -91 -101 -86 -187 3 -54 9 -73 32 -103 54 -71 59 -72 370 -78 l280 -5
9 -34 c4 -18 14 -40 20 -47 7 -7 30 -38 52 -68 22 -30 51 -61 64 -68 14 -7 38
-25 55 -40 17 -16 34 -28 39 -28 5 0 23 -7 40 -15 72 -32 126 -45 200 -45 185
0 366 105 460 268 21 35 37 67 37 73 0 5 107 9 270 9 291 0 302 2 357 57 36
36 43 59 43 141 0 92 2 89 -145 238 -50 50 -95 97 -100 105 -38 54 -67 100
-91 149 -10 19 -21 37 -25 40 -3 3 -10 20 -14 38 -3 17 -10 32 -15 32 -5 0
-14 26 -20 58 -7 31 -16 62 -20 67 -14 18 -22 96 -30 275 -8 165 -21 269 -40
315 -19 47 -66 141 -75 152 -5 6 -23 30 -40 53 -32 45 -159 160 -176 160 -29
0 -39 30 -39 116 0 75 -4 95 -29 148 -34 72 -94 129 -169 163 -80 35 -197 32
-272 -7z m192 -169 c56 -25 78 -52 87 -110 l7 -47 -65 8 c-62 8 -173 4 -215
-9 -17 -5 -18 -1 -14 40 6 55 31 89 83 115 51 26 63 26 117 3z m71 -349 c7 -5
33 -15 60 -22 26 -7 47 -17 47 -21 0 -5 6 -9 14 -9 8 0 28 -11 44 -25 17 -14
33 -25 36 -25 3 0 18 -14 33 -30 43 -47 49 -55 63 -81 7 -13 16 -26 19 -29 9
-7 38 -71 46 -100 4 -14 11 -88 16 -165 14 -242 32 -386 49 -410 4 -5 11 -28
14 -49 4 -21 13 -48 21 -60 7 -12 16 -36 20 -53 4 -18 10 -33 15 -33 4 0 11
-12 15 -27 3 -15 10 -30 13 -33 4 -3 18 -27 31 -53 37 -74 124 -184 222 -279
l89 -88 -992 0 -992 0 85 83 c47 45 102 102 122 127 20 25 41 50 47 57 5 7 10
15 10 19 0 4 6 15 14 23 26 29 106 181 106 200 0 7 6 22 14 34 8 12 17 38 21
57 4 19 11 40 16 46 5 6 12 33 15 60 4 27 11 57 16 68 6 10 14 113 18 230 6
160 12 218 24 241 9 17 16 38 16 48 0 9 4 17 8 17 4 0 13 15 20 33 16 45 101
138 165 180 45 30 114 59 192 81 30 8 195 -1 208 -12z m148 -1800 c-8 -15 -49
-54 -106 -100 -50 -40 -224 -48 -305 -13 -49 21 -97 61 -126 107 l-16 24 281
0 c270 0 281 -1 272 -18z"></path>
        <path d="M2990 7003 c-24 -3 -49 -8 -55 -12 -5 -5 -27 -11 -47 -15 -21 -4 -38
-10 -38 -14 0 -4 -20 -14 -45 -21 -25 -7 -45 -17 -45 -22 0 -5 -7 -9 -15 -9
-9 0 -58 -43 -110 -95 -52 -52 -95 -101 -95 -110 0 -8 -4 -15 -8 -15 -9 0 -32
-59 -32 -82 0 -9 -5 -18 -11 -20 -5 -2 -14 -21 -19 -43 -6 -23 -10 -542 -10
-1237 0 -1169 3 -1298 31 -1298 5 0 9 -7 9 -15 0 -85 226 -314 336 -341 16 -4
32 -11 35 -16 7 -12 98 -29 181 -35 l66 -5 -5 -36 c-3 -20 -10 -42 -14 -48 -5
-6 -12 -44 -15 -85 -4 -41 -10 -78 -14 -84 -4 -5 -13 -50 -19 -100 -7 -49 -17
-106 -22 -125 -6 -19 -14 -60 -20 -90 -38 -208 -36 -237 23 -292 35 -34 44
-38 92 -38 62 0 101 17 143 62 16 18 50 50 74 72 24 21 103 94 174 163 72 68
188 179 259 246 71 67 178 170 238 228 60 59 119 112 131 118 16 8 357 12
1262 14 1216 3 1334 6 1354 35 3 4 25 13 47 20 23 7 47 19 54 27 7 8 18 15 26
15 19 0 167 147 199 199 15 24 32 58 38 75 5 17 15 34 20 37 5 4 12 30 15 58
2 28 8 51 13 51 5 0 9 184 9 413 -1 402 -1 413 -21 437 -17 20 -30 25 -68 25
-89 0 -85 17 -91 -419 -5 -309 -9 -394 -23 -450 -9 -38 -22 -76 -30 -85 -7 -9
-19 -29 -27 -44 -18 -35 -100 -116 -140 -138 -16 -9 -36 -21 -43 -28 -40 -32
-110 -34 -1367 -40 l-1255 -6 -48 -23 c-27 -13 -96 -69 -165 -135 -64 -62
-139 -132 -166 -157 -58 -53 -228 -216 -404 -388 -70 -67 -130 -122 -134 -122
-5 0 -6 10 -3 23 7 31 24 131 36 207 5 36 14 75 19 87 5 12 14 69 21 127 6 58
15 106 20 106 4 0 10 33 14 74 6 66 5 78 -16 114 -34 59 -82 80 -224 97 -67 8
-132 19 -145 25 -136 58 -236 176 -271 318 -18 70 -19 137 -19 1173 0 605 4
1108 9 1121 5 13 14 45 20 72 20 82 118 211 190 248 14 7 28 16 31 19 3 4 40
16 83 28 77 21 82 21 1470 21 1315 1 1393 2 1412 18 24 21 45 56 45 75 0 26
-25 66 -51 81 -24 14 -168 16 -1416 14 -763 -1 -1408 -3 -1433 -5z"></path>
        <path d="M3252 6097 c-22 -23 -29 -76 -16 -112 4 -8 25 -25 47 -35 40 -20 68
-20 1116 -20 959 0 1080 2 1117 16 66 25 87 102 39 149 l-24 25 -1129 0 -1129
0 -21 -23z"></path>
        <path d="M3284 5406 c-46 -25 -54 -38 -54 -86 0 -42 4 -52 31 -74 l31 -26 925
0 926 0 34 26 c28 21 33 31 33 67 -1 49 -12 67 -59 90 -31 16 -110 17 -940 16
-681 -1 -911 -4 -927 -13z"></path>
        <path d="M3290 4690 c0 -5 -6 -10 -13 -10 -27 0 -47 -36 -47 -82 0 -48 12 -64
63 -86 36 -16 1832 -17 1842 -2 3 6 14 10 23 10 29 0 52 37 52 84 0 42 -21 76
-48 76 -7 0 -12 5 -12 10 0 7 -317 10 -930 10 -613 0 -930 -3 -930 -10z"></path>
    </g>
</svg>