<svg version="1.0" width="1024.000000pt" height="1024.000000pt" viewBox="0 0 1024.000000 1024.000000" preserveAspectRatio="xMidYMid meet" xmlns="http://www.w3.org/2000/svg">
    <defs></defs>
    <g transform="matrix(0.15256, 0, 0, -0.20831, -272.709869, 1576.276611)" fill="#000000" stroke="none" style="">
        <path d="M4615 7548 c-33 -5 -62 -13 -65 -17 -3 -4 -21 -11 -40 -15 -46 -9
-220 -96 -227 -113 -3 -7 -10 -13 -17 -13 -11 0 -39 -22 -107 -84 -19 -18 -59
-63 -87 -102 -29 -38 -56 -73 -60 -79 -4 -5 -22 -41 -41 -80 -18 -38 -37 -78
-41 -87 -14 -26 -40 -146 -40 -184 0 -19 -4 -34 -10 -34 -6 0 -10 -83 -10
-230 0 -147 4 -230 10 -230 6 0 10 -14 10 -30 0 -74 35 -207 75 -283 11 -22
15 -67 15 -191 0 -158 14 -321 30 -341 4 -5 13 -34 19 -63 6 -29 19 -72 30
-95 10 -23 22 -52 25 -64 4 -13 11 -23 15 -23 4 0 14 -18 21 -40 7 -22 16 -40
19 -40 3 0 12 -13 19 -29 7 -16 20 -38 30 -50 9 -12 26 -33 37 -48 11 -14 53
-60 93 -101 l72 -76 0 -156 0 -156 -91 -94 c-50 -52 -99 -114 -110 -137 -15
-34 -26 -44 -57 -52 -20 -6 -41 -11 -47 -11 -5 0 -22 -6 -37 -14 -14 -8 -43
-19 -65 -26 -21 -7 -42 -16 -48 -20 -5 -3 -30 -12 -55 -19 -25 -7 -49 -16 -55
-20 -5 -4 -39 -16 -75 -26 -36 -11 -67 -22 -70 -25 -3 -4 -18 -10 -35 -14 -38
-10 -139 -57 -143 -68 -5 -12 -39 -10 -61 4 -23 14 -12 27 37 47 19 8 39 19
45 25 7 6 35 27 62 46 49 34 155 138 155 152 0 4 8 14 17 24 20 19 23 121 5
133 -6 4 -16 31 -23 61 -6 30 -15 60 -19 65 -12 15 -29 232 -36 468 -4 114
-11 210 -15 213 -5 3 -9 19 -9 36 0 47 -22 158 -32 158 -4 0 -8 9 -8 20 0 33
-67 180 -82 180 -5 0 -8 7 -8 14 0 17 -86 125 -139 174 -20 19 -54 46 -76 60
-22 15 -42 30 -45 33 -11 13 -98 53 -180 81 -68 24 -108 31 -200 35 -119 6
-282 -10 -288 -27 -2 -6 -10 -10 -17 -10 -24 0 -115 -33 -115 -42 0 -4 -6 -8
-12 -8 -15 0 -88 -47 -137 -87 -73 -60 -139 -133 -161 -178 -8 -16 -23 -37
-32 -47 -10 -10 -18 -25 -18 -33 0 -8 -4 -15 -10 -15 -5 0 -10 -4 -10 -10 0
-5 -11 -33 -24 -62 -13 -29 -29 -82 -36 -118 -6 -36 -16 -73 -21 -83 -5 -10
-14 -147 -20 -305 -5 -158 -14 -296 -19 -307 -4 -11 -13 -59 -19 -106 -6 -48
-19 -102 -28 -120 -18 -37 -29 -116 -20 -152 18 -69 224 -251 309 -272 29 -7
47 -35 23 -35 -8 0 -15 -4 -15 -9 0 -5 -23 -17 -50 -27 -28 -10 -50 -21 -50
-24 0 -4 -18 -13 -40 -20 -22 -7 -40 -17 -40 -21 0 -4 -10 -11 -22 -15 -61
-19 -148 -107 -189 -191 -24 -48 -24 -49 -27 -483 -2 -239 0 -449 3 -466 6
-37 38 -54 99 -54 28 0 52 7 67 19 l24 19 5 414 5 413 25 40 c34 56 73 91 114
106 20 7 36 16 36 19 0 4 18 13 40 20 22 7 40 16 40 19 0 4 23 15 50 26 28 11
50 22 50 26 0 3 18 12 40 19 40 13 41 13 78 -22 76 -71 107 -97 131 -110 15
-7 28 -16 31 -20 3 -4 35 -15 70 -24 102 -26 229 -16 313 25 36 17 68 38 71
46 3 8 11 15 18 15 7 0 37 25 67 54 l53 53 39 -19 c21 -10 39 -21 39 -24 0 -2
-12 -33 -27 -67 l-28 -62 -3 -464 -3 -464 27 -28 c24 -25 36 -29 79 -29 28 0
58 6 66 12 45 38 44 30 49 492 l5 441 30 50 c16 28 42 62 57 76 32 32 137 84
223 110 22 6 42 15 45 19 3 3 35 14 73 24 37 10 67 22 67 26 0 4 17 11 38 15
20 4 55 15 77 25 22 10 55 21 73 25 17 3 32 10 32 14 0 9 89 33 99 27 4 -3 21
-24 37 -48 16 -24 31 -45 34 -48 7 -7 29 -43 37 -60 4 -8 9 -17 13 -20 3 -3
36 -50 72 -105 81 -122 93 -137 143 -166 51 -29 134 -31 190 -5 22 10 77 57
123 103 l82 84 0 -505 c0 -325 4 -514 10 -532 16 -41 39 -53 98 -54 45 0 57 4
77 26 l25 27 0 519 0 519 80 -82 c102 -103 135 -121 223 -122 39 -1 71 4 75
10 4 5 17 14 30 17 22 7 102 98 102 116 0 5 6 15 13 22 24 26 77 106 77 117 0
6 3 11 8 11 4 0 16 17 27 38 11 20 25 41 32 45 7 4 13 13 13 20 0 7 13 27 29
46 27 33 29 33 67 21 21 -6 53 -18 71 -26 17 -8 34 -14 38 -14 3 0 25 -9 48
-19 23 -11 59 -22 80 -26 20 -4 37 -11 37 -15 0 -4 30 -16 68 -26 37 -10 69
-20 72 -24 3 -3 25 -12 50 -20 25 -7 50 -17 55 -20 6 -4 27 -13 49 -20 61 -20
133 -75 163 -125 38 -62 38 -64 43 -514 4 -343 8 -445 18 -449 6 -2 12 -10 12
-18 0 -19 41 -34 96 -34 34 0 51 6 69 25 l25 24 0 454 c0 303 -4 465 -11 488
-19 57 -68 152 -95 184 -14 16 -22 31 -17 32 4 1 25 6 46 12 l38 10 119 -120
119 -119 3 -471 3 -471 28 -24 c22 -18 40 -24 79 -24 43 0 54 4 79 31 l29 31
0 463 0 463 119 120 118 121 44 -11 c24 -6 49 -14 54 -19 6 -4 38 -13 73 -20
34 -7 62 -16 62 -19 0 -4 32 -13 70 -20 39 -7 70 -17 70 -22 0 -4 7 -8 15 -8
30 0 106 -32 128 -54 13 -13 34 -41 48 -62 l24 -39 5 -458 5 -459 25 -20 c20
-16 35 -19 83 -16 31 2 63 10 70 17 19 19 17 990 -2 1049 -8 23 -17 42 -20 42
-3 0 -12 12 -19 28 -36 78 -169 168 -277 187 -22 4 -44 11 -50 15 -5 4 -37 14
-70 21 -33 7 -64 16 -70 20 -5 4 -47 15 -92 25 -94 20 -103 30 -103 119 0 39
5 58 17 67 9 7 49 45 88 83 79 77 147 185 166 261 6 27 17 55 23 63 6 8 13 88
16 198 3 112 9 187 16 191 5 4 16 23 24 42 7 19 23 55 34 80 20 43 21 64 24
405 l3 361 -27 27 -27 27 -521 0 c-485 0 -652 -8 -666 -29 -3 -4 -18 -11 -35
-15 -16 -4 -53 -21 -82 -37 -59 -34 -183 -146 -183 -166 0 -8 -6 -16 -14 -19
-8 -3 -23 -26 -33 -50 -10 -24 -21 -44 -25 -44 -4 0 -12 -26 -18 -57 -7 -32
-17 -61 -22 -64 -15 -9 -16 -262 -2 -280 6 -8 14 -27 18 -43 4 -16 20 -58 37
-92 26 -56 29 -74 29 -160 0 -54 4 -111 9 -128 5 -17 14 -64 21 -105 6 -41 14
-79 19 -85 5 -6 16 -34 25 -63 10 -28 24 -57 32 -63 7 -7 14 -17 14 -22 0 -28
165 -208 190 -208 6 0 10 -33 10 -80 0 -64 -3 -80 -15 -80 -8 0 -15 -4 -15 -8
0 -5 -35 -16 -77 -26 -43 -10 -84 -23 -90 -28 -17 -13 -113 -15 -121 -2 -7 11
-105 44 -128 44 -8 0 -14 4 -14 9 0 5 -15 13 -32 16 -18 4 -51 15 -73 25 -23
10 -54 22 -70 26 -17 4 -34 10 -40 14 -5 4 -39 16 -73 26 -38 10 -66 24 -69
33 -12 38 -30 65 -68 104 -23 23 -65 68 -93 100 l-52 57 0 146 0 146 88 92
c48 51 100 112 116 137 16 24 37 55 46 69 10 14 20 35 24 48 4 12 12 22 17 22
5 0 9 4 9 10 0 5 11 34 25 64 14 30 30 78 36 108 6 29 15 58 20 64 17 21 28
159 29 345 0 102 4 189 9 195 5 5 14 27 21 49 7 22 16 45 20 50 11 13 40 156
40 195 0 16 5 30 10 30 16 0 14 1227 -2 1246 -40 47 15 44 -866 43 -473 -1
-853 -6 -887 -11z m1543 -761 c-2 -395 -6 -558 -14 -568 -7 -8 -17 -40 -24
-71 -7 -32 -16 -58 -20 -58 -3 0 -16 -33 -28 -72 -18 -62 -22 -105 -25 -293
-4 -203 -19 -335 -38 -335 -4 0 -10 -12 -14 -27 -9 -38 -56 -134 -77 -157 -10
-11 -18 -24 -18 -29 0 -27 -170 -201 -246 -252 -33 -22 -61 -43 -64 -46 -3 -3
-22 -12 -42 -20 -21 -7 -38 -16 -38 -20 0 -4 -30 -15 -67 -25 -38 -10 -70 -21
-73 -25 -8 -11 -153 -29 -239 -29 -84 0 -243 18 -251 29 -3 4 -32 15 -65 25
-32 10 -88 36 -123 57 -35 22 -66 39 -68 39 -5 0 -9 3 -74 57 -39 32 -130 129
-173 184 -34 43 -113 199 -122 240 -4 19 -11 37 -16 40 -19 11 -39 208 -39
379 0 97 -4 180 -8 185 -5 6 -14 29 -21 53 -6 23 -16 42 -20 42 -5 0 -14 28
-21 63 -6 34 -17 68 -23 76 -16 19 -17 549 -1 559 6 4 14 25 18 46 10 53 66
162 121 234 23 31 117 122 125 122 5 0 15 8 22 18 7 10 28 24 46 31 17 7 32
17 32 21 0 5 17 14 38 20 20 7 51 18 67 26 67 29 140 32 853 33 l733 1 -3
-553z m-3180 -1023 c42 -9 84 -21 92 -28 8 -7 26 -17 40 -23 34 -14 120 -81
153 -118 105 -118 177 -270 177 -372 0 -17 5 -35 10 -38 6 -3 10 -45 10 -93
-1 -78 -2 -85 -15 -68 -70 92 -169 172 -285 228 -14 7 -27 15 -30 18 -11 13
-130 53 -205 69 -44 10 -89 21 -100 26 -10 5 -71 9 -135 9 l-115 1 -100 -102
c-133 -135 -130 -131 -130 -184 0 -40 5 -52 32 -78 25 -24 42 -31 71 -31 46 0
77 22 165 114 l65 67 80 -10 c44 -6 108 -19 141 -31 33 -11 67 -20 76 -20 8 0
15 -4 15 -8 0 -5 18 -15 40 -22 22 -7 40 -16 40 -20 0 -3 15 -14 34 -23 58
-27 145 -109 199 -187 38 -54 41 -105 9 -174 -12 -25 -22 -50 -22 -56 0 -5 -3
-10 -8 -10 -4 0 -16 -17 -27 -37 -25 -47 -54 -75 -118 -118 -29 -19 -56 -38
-62 -43 -5 -4 -26 -14 -45 -21 -19 -7 -46 -18 -59 -25 -32 -15 -259 -15 -269
0 -4 6 -22 15 -41 19 -77 17 -243 156 -272 229 -7 17 -16 33 -20 36 -11 9 -39
117 -39 155 0 62 -29 134 -61 150 -15 8 -35 15 -44 15 -12 0 -15 14 -15 79 0
99 17 226 35 266 7 17 16 47 20 68 4 20 11 37 16 37 5 0 9 6 9 13 0 38 112
179 188 237 18 14 38 30 45 35 7 6 28 17 47 25 19 8 37 17 40 21 10 14 145 37
218 38 40 1 108 -6 150 -15z m4942 -217 c0 -185 -3 -245 -16 -288 -9 -30 -19
-56 -23 -59 -4 -3 -13 -21 -21 -40 -8 -19 -18 -38 -24 -42 -6 -4 -13 -86 -16
-200 -3 -116 -10 -201 -17 -213 -6 -11 -19 -40 -28 -64 -8 -24 -21 -49 -28
-57 -7 -8 -28 -33 -47 -57 -54 -67 -185 -157 -228 -157 -10 0 -24 -6 -31 -12
-16 -17 -249 -18 -259 -1 -4 6 -24 14 -45 18 -20 4 -40 11 -43 16 -3 5 -22 18
-42 29 -39 20 -132 104 -132 119 0 5 -7 14 -15 21 -29 24 -86 158 -92 215 -3
31 -10 58 -14 61 -5 3 -9 63 -9 134 0 137 -3 148 -83 309 -15 29 -14 172 0
203 6 13 17 39 24 58 20 57 126 179 156 180 6 0 18 6 26 14 40 40 95 45 560
45 l447 1 0 -233z m-3185 -942 c17 -7 48 -17 70 -20 22 -4 45 -11 50 -16 17
-13 171 -29 276 -29 101 0 257 17 274 30 6 4 35 13 65 20 30 7 57 16 60 19 3
4 23 13 45 20 22 7 46 15 53 18 10 4 12 -11 10 -68 l-3 -72 -75 -53 c-41 -30
-88 -61 -105 -70 -16 -9 -34 -23 -38 -30 -4 -8 -12 -14 -17 -14 -13 0 -103
-62 -113 -77 -4 -7 -14 -13 -22 -13 -8 0 -18 -6 -22 -12 -4 -7 -24 -22 -43
-32 -19 -11 -41 -26 -49 -33 -15 -16 -52 -8 -64 13 -4 8 -13 14 -18 14 -9 0
-93 54 -109 70 -14 14 -99 70 -107 70 -5 0 -16 8 -24 18 -9 9 -29 25 -45 34
-25 15 -65 43 -151 105 -20 14 -23 25 -23 89 l0 73 48 -20 c26 -12 61 -27 77
-34z m-1210 -200 l14 -59 -46 -43 c-25 -24 -47 -43 -49 -43 -2 0 -24 -13 -50
-29 -25 -17 -59 -33 -75 -36 -16 -4 -29 -11 -29 -16 0 -5 -7 -9 -15 -9 -11 0
-15 11 -15 40 0 32 6 45 32 67 53 46 137 137 144 156 3 9 9 17 14 17 4 0 16
20 27 45 l18 45 8 -37 c4 -21 14 -65 22 -98z m-1325 81 c1 -27 130 -174 194
-221 24 -17 27 -26 24 -62 l-3 -41 -60 28 c-33 16 -65 29 -71 30 -7 0 -14 7
-18 15 -3 8 -11 15 -17 15 -7 0 -36 21 -66 46 -52 45 -54 49 -48 83 4 20 10
41 15 46 4 6 11 32 15 58 7 43 9 46 21 30 7 -10 14 -22 14 -27z m2399 -240 c8
-9 19 -16 26 -16 8 0 15 -3 17 -7 2 -5 30 -26 63 -48 33 -22 62 -42 65 -45 16
-16 100 -70 109 -70 6 0 11 -4 11 -10 0 -5 14 -17 31 -26 l32 -16 -113 -113
-113 -114 -71 107 c-39 59 -74 109 -78 110 -5 2 -8 8 -8 13 0 5 -12 27 -27 48
-16 21 -34 47 -40 57 -7 11 -24 36 -38 57 -14 21 -25 39 -25 41 0 1 16 21 37
44 l36 41 37 -19 c20 -10 42 -26 49 -34z m1187 5 c25 -30 26 -35 14 -55 -8
-11 -20 -33 -28 -48 -7 -16 -18 -28 -23 -28 -5 0 -9 -5 -9 -11 0 -9 -30 -57
-73 -114 -24 -33 -77 -115 -77 -120 0 -3 -5 -11 -10 -18 -6 -7 -21 -26 -33
-43 l-22 -30 -113 112 -113 113 31 16 c16 8 30 20 30 25 0 6 5 10 12 10 6 0
26 11 44 25 18 14 36 25 41 25 5 0 16 8 25 18 8 9 41 32 72 51 31 18 56 37 56
42 0 5 5 9 10 9 6 0 33 16 61 35 56 38 62 37 105 -14z m-3068 -123 c5 -11 208
-10 230 1 9 4 33 11 53 15 l37 6 5 -92 5 -93 -54 -52 c-30 -29 -65 -55 -79
-59 -14 -3 -25 -10 -25 -15 0 -5 -19 -9 -43 -9 -44 0 -114 28 -146 58 -10 9
-34 30 -54 47 -31 26 -34 34 -30 65 3 19 10 39 14 45 5 5 9 30 9 56 l0 48 38
-6 c20 -3 39 -10 40 -15z m4494 1 c22 -12 201 -12 214 0 5 4 25 11 46 14 35 5
36 4 43 -30 4 -22 2 -40 -7 -50 -21 -26 -189 -193 -194 -193 -2 0 -52 47 -109
105 -94 94 -105 109 -105 141 l0 35 48 -7 c26 -3 55 -10 64 -15z"></path>
        <path d="M4663 6673 c-40 -2 -73 -8 -73 -12 0 -4 -36 -11 -81 -14 -103 -8
-156 -39 -193 -112 -25 -48 -26 -58 -26 -211 0 -156 1 -162 24 -187 29 -31 83
-43 128 -28 53 18 68 64 68 203 l0 116 43 6 c168 22 267 27 482 23 163 -3 240
-8 243 -16 2 -6 19 -11 38 -11 40 0 187 -31 194 -40 3 -4 16 -11 30 -15 26 -7
128 -55 145 -67 5 -4 34 -28 63 -52 64 -53 108 -64 158 -40 40 19 54 46 54
107 0 38 -5 47 -54 92 -56 51 -135 105 -155 105 -6 0 -11 4 -11 9 0 5 -17 15
-37 22 -21 6 -40 15 -43 18 -7 8 -66 27 -110 36 -19 4 -39 11 -45 15 -5 4 -41
13 -80 19 -38 6 -86 13 -105 16 -19 3 -60 10 -90 15 -53 8 -415 10 -567 3z"></path>
        <path d="M6933 5463 c-34 -27 -46 -73 -33 -122 15 -57 46 -71 160 -71 53 0 90
-4 90 -10 0 -5 21 -10 48 -10 60 0 212 -19 232 -29 8 -4 39 -14 68 -20 28 -7
52 -17 52 -21 0 -11 83 -24 107 -16 10 3 30 17 46 31 22 21 27 34 27 74 0 56
-24 88 -80 110 -19 7 -49 19 -66 27 -16 7 -50 16 -75 20 -24 4 -48 10 -54 14
-16 13 -178 29 -345 35 -140 6 -157 5 -177 -12z"></path>
        <path d="M7904 3503 c-12 -2 -34 -18 -50 -34 l-29 -30 0 -356 c0 -276 3 -357
13 -360 6 -3 12 -11 12 -19 0 -19 41 -34 95 -34 34 0 50 6 70 25 l25 26 0 364
0 364 -22 22 c-24 22 -62 40 -81 38 -7 -1 -22 -4 -33 -6z"></path>
        <path d="M2276 3373 c-10 -3 -29 -16 -42 -30 l-24 -26 0 -298 0 -298 25 -26
c20 -19 36 -25 70 -25 54 0 95 15 95 34 0 8 6 16 13 19 9 3 12 71 12 295 l0
292 -30 30 c-31 31 -80 44 -119 33z"></path>
        <path d="M3940 3289 c-14 -6 -35 -22 -47 -37 -22 -26 -22 -34 -23 -270 l0
-243 26 -35 c25 -32 30 -34 83 -34 49 0 61 4 82 26 l24 26 0 258 0 258 -25 25
c-29 29 -84 41 -120 26z"></path>
        <path d="M6235 3293 c-11 -3 -31 -17 -45 -30 l-25 -25 0 -260 0 -260 28 -24
c22 -19 40 -24 81 -24 46 0 56 4 79 30 l27 30 0 244 c0 214 -2 248 -17 275
-23 40 -74 57 -128 44z"></path>
    </g>
</svg>