<svg version="1.0" width="1024.000000pt" height="1024.000000pt" viewBox="0 0 1024.000000 1024.000000" preserveAspectRatio="xMidYMid meet" xmlns="http://www.w3.org/2000/svg">
    <defs></defs>
    <g transform="matrix(0.19649, 0, 0, -0.195783, -495.343964, 1515.011963)" fill="#000000" stroke="none" style="">
        <path d="M5020 7704 c-132 -57 -181 -237 -97 -361 20 -29 48 -55 74 -68 l42
-20 1 -87 0 -88 -330 0 -331 0 -24 -25 c-24 -23 -25 -28 -25 -179 l0 -154 -86
-3 c-79 -4 -87 -6 -110 -32 -24 -28 -24 -30 -24 -243 0 -215 0 -215 25 -239
22 -23 32 -25 112 -25 l88 0 110 -172 c66 -103 120 -178 135 -185 16 -8 72
-13 162 -13 l137 0 3 -640 c3 -624 3 -640 23 -659 32 -31 94 -32 125 -1 20 20
20 33 20 660 l0 640 75 0 75 0 0 -1565 0 -1565 -75 0 -75 0 0 785 0 786 -25
24 c-49 50 -125 24 -139 -47 -3 -17 -6 -372 -6 -789 l0 -759 -965 0 -965 0 0
245 0 245 884 0 c878 0 883 0 910 21 36 28 37 89 1 124 l-24 25 -944 0 c-940
0 -944 0 -971 -21 l-26 -20 0 -309 0 -308 -109 -4 c-133 -4 -151 -14 -151 -89
0 -87 -277 -79 2607 -79 2550 0 2563 0 2583 20 28 28 28 100 -1 126 -17 16
-40 20 -130 22 l-109 4 0 308 0 309 -26 20 c-27 21 -31 21 -971 21 l-944 0
-24 -25 c-36 -35 -35 -96 1 -124 27 -21 32 -21 910 -21 l884 0 0 -245 0 -245
-965 0 -965 0 0 1564 0 1565 151 3 151 3 26 31 c15 17 70 99 122 183 l94 151
89 0 c80 0 90 2 112 25 25 24 25 24 25 239 0 213 0 215 -24 243 -23 26 -31 28
-110 32 l-86 3 0 154 c0 151 -1 156 -25 179 -23 24 -28 25 -178 25 -138 0
-157 -2 -178 -19 -19 -15 -24 -29 -24 -66 0 -71 23 -85 141 -85 l94 0 0 -95 0
-95 -625 0 -625 0 0 95 0 95 394 0 c373 0 395 1 417 19 19 15 24 29 24 65 0
57 -19 77 -79 83 l-46 6 1 86 0 86 47 30 c147 94 128 343 -32 416 -51 23 -157
24 -206 3z m150 -174 c42 -42 11 -113 -50 -113 -62 0 -90 65 -48 110 27 29 71
30 98 3z m800 -1080 l0 -100 -845 0 -845 0 0 100 0 100 845 0 845 0 0 -100z
m-270 -274 c0 -3 -26 -47 -59 -98 l-58 -93 -458 0 -458 0 -58 93 c-33 51 -59
95 -59 98 0 2 259 4 575 4 316 0 575 -2 575 -4z"></path>
        <path d="M3110 2980 c-26 -26 -27 -89 -1 -121 16 -19 30 -24 90 -27 133 -8
181 15 181 88 0 68 -21 80 -145 80 -92 0 -108 -3 -125 -20z"></path>
        <path d="M3569 2981 c-18 -15 -23 -28 -23 -60 1 -22 7 -47 14 -55 21 -27 80
-39 163 -34 72 4 83 8 104 32 29 34 30 75 2 110 -20 25 -24 26 -129 26 -91 0
-111 -3 -131 -19z"></path>
        <path d="M4031 2974 c-37 -47 -21 -115 32 -134 46 -16 164 -12 202 6 61 28 66
117 9 143 -14 6 -69 11 -124 11 -95 0 -99 -1 -119 -26z"></path>
        <path d="M4500 2980 c-28 -28 -28 -100 1 -126 18 -16 37 -19 126 -19 98 0 106
2 124 24 26 32 25 95 -1 121 -17 17 -33 20 -125 20 -92 0 -108 -3 -125 -20z"></path>
        <path d="M5500 2980 c-27 -27 -27 -93 0 -120 27 -27 57 -33 149 -29 98 5 121
21 121 86 0 72 -19 83 -145 83 -92 0 -108 -3 -125 -20z"></path>
        <path d="M5973 2988 c-54 -26 -47 -114 12 -142 38 -18 156 -22 202 -6 53 19
69 87 32 134 -20 25 -24 26 -122 25 -56 0 -112 -5 -124 -11z"></path>
        <path d="M6421 2974 c-28 -35 -27 -76 2 -110 21 -24 32 -28 104 -32 83 -5 142
7 163 34 7 8 13 33 14 55 1 67 -23 79 -154 79 -105 0 -109 -1 -129 -26z"></path>
        <path d="M6890 2980 c-13 -13 -20 -33 -20 -60 0 -73 48 -96 181 -88 84 5 109
25 109 89 0 67 -22 79 -145 79 -92 0 -108 -3 -125 -20z"></path>
    </g>
</svg>