<svg version="1.0" width="1024.000000pt" height="1024.000000pt" viewBox="0 0 1024.000000 1024.000000" preserveAspectRatio="xMidYMid meet" xmlns="http://www.w3.org/2000/svg">
    <defs></defs>
    <g transform="matrix(0.19123, 0, 0, -0.192824, -468.45459, 1499.351807)" fill="#000000" stroke="none" style="">
        <path d="M3460 7744 c-133 -36 -225 -97 -287 -192 -21 -31 -41 -60 -46 -63 -5
-3 -20 -37 -35 -75 -23 -62 -26 -86 -30 -240 -5 -198 6 -258 65 -364 47 -84
110 -150 191 -201 264 -167 617 -61 753 226 47 100 59 161 59 316 0 144 -10
201 -54 293 -64 137 -132 208 -253 264 -115 53 -249 66 -363 36z m269 -212
c160 -81 207 -179 199 -418 -3 -120 -6 -133 -35 -194 -39 -79 -46 -88 -105
-128 -98 -67 -205 -81 -311 -42 -87 33 -135 75 -176 154 l-36 69 -3 156 c-3
142 -2 161 19 215 38 103 146 194 256 217 58 12 132 1 192 -29z"></path>
        <path d="M6235 6533 c-110 -14 -218 -37 -302 -64 -114 -37 -308 -138 -408
-213 -142 -107 -299 -286 -382 -433 -50 -90 -119 -265 -133 -340 -7 -35 -16
-63 -20 -63 -13 0 -33 -183 -33 -305 0 -122 20 -305 33 -305 4 0 13 -28 20
-62 14 -75 68 -215 121 -318 114 -220 350 -455 564 -562 44 -22 82 -44 85 -48
8 -11 167 -67 255 -89 260 -65 577 -50 831 40 99 35 314 151 383 206 94 76
234 220 279 288 25 39 54 79 64 89 28 31 104 192 137 291 56 168 66 240 66
465 0 227 -18 346 -75 499 -47 126 -112 256 -141 281 -3 3 -23 32 -44 65 -47
73 -229 255 -316 317 -35 25 -100 64 -144 87 -44 22 -85 45 -90 49 -17 14
-171 70 -237 88 -135 35 -389 53 -513 37z m425 -223 c115 -28 209 -63 299
-110 227 -119 452 -360 541 -578 17 -43 39 -95 50 -117 81 -172 81 -608 0
-780 -11 -22 -33 -74 -50 -117 -101 -248 -366 -510 -632 -622 -149 -63 -262
-87 -438 -93 -177 -6 -277 7 -437 58 -169 53 -298 132 -465 284 -76 69 -98 96
-182 225 -203 312 -250 713 -124 1065 57 157 197 371 311 474 206 185 398 283
641 326 119 21 375 13 486 -15z"></path>
        <path d="M5829 5931 c-38 -38 -41 -100 -6 -135 22 -22 31 -24 218 -28 216 -6
252 -14 328 -73 45 -36 84 -85 101 -130 l10 -25 -316 0 -315 0 -24 -25 c-32
-31 -35 -101 -6 -136 l19 -24 321 -5 322 -5 -27 -53 c-18 -36 -43 -66 -78 -92
-85 -64 -117 -72 -339 -79 -196 -6 -199 -6 -219 -31 -16 -20 -19 -35 -15 -74
4 -45 10 -54 58 -99 124 -114 300 -279 404 -378 91 -87 205 -194 273 -256 29
-27 89 -20 124 14 22 21 28 36 28 69 0 48 2 46 -219 252 -58 53 -132 124 -165
157 -34 33 -85 82 -115 108 l-53 47 58 0 c210 1 415 162 478 375 l12 40 109 3
c61 1 120 7 131 13 59 30 57 141 -3 168 -13 6 -72 11 -131 11 l-107 0 -13 52
c-6 28 -16 54 -20 57 -5 3 -22 32 -39 64 l-31 57 169 0 c167 0 170 0 194 25
38 37 35 93 -7 134 l-32 31 -524 0 -524 0 -29 -29z"></path>
        <path d="M2862 6515 c-145 -32 -288 -140 -354 -269 -11 -22 -29 -70 -39 -108
-18 -63 -19 -111 -19 -692 0 -642 3 -692 40 -766 26 -51 98 -114 156 -135 27
-10 53 -22 59 -27 12 -10 145 -11 145 0 0 11 83 33 91 24 3 -4 18 -406 33
-894 20 -677 30 -898 41 -935 43 -145 178 -243 334 -243 98 0 198 37 246 90
l18 20 26 -24 c90 -84 264 -106 395 -48 107 48 181 159 191 289 6 65 55 1606
55 1706 0 49 0 49 28 42 15 -3 40 -13 56 -21 30 -15 156 -20 156 -6 0 4 20 13
44 20 53 14 121 64 158 117 57 82 58 102 58 776 0 584 -1 620 -20 695 -30 116
-55 161 -140 245 -85 84 -166 130 -265 148 -32 6 -132 11 -222 11 l-163 0 -48
-42 c-26 -24 -56 -52 -67 -63 -12 -11 -70 -66 -131 -121 l-109 -102 -172 164
-172 164 -173 -1 c-106 0 -197 -6 -236 -14z m416 -267 c46 -46 105 -105 131
-132 25 -27 72 -71 104 -97 62 -53 106 -63 155 -36 20 12 112 95 319 290 l62
59 143 -4 c134 -3 147 -5 200 -32 69 -35 140 -107 171 -173 22 -48 22 -50 25
-671 3 -599 2 -624 -17 -667 -39 -89 -148 -107 -227 -38 -43 38 -44 48 -44
405 0 207 -4 358 -11 380 -18 68 -102 87 -156 36 -23 -21 -23 -24 -23 -265 l0
-243 -494 0 -493 0 -7 53 c-3 28 -6 136 -6 238 0 172 -2 188 -20 212 -24 31
-74 43 -113 28 -54 -21 -57 -45 -57 -428 l0 -348 -25 -38 c-47 -68 -131 -88
-195 -44 -60 40 -59 38 -60 705 0 348 3 620 9 637 20 67 42 102 88 146 98 93
141 107 322 108 l134 1 85 -82z m821 -1490 c0 -57 -9 -335 -20 -618 -10 -283
-26 -697 -34 -920 -8 -223 -19 -421 -24 -440 -12 -42 -60 -96 -96 -110 -35
-13 -91 -13 -117 1 -31 17 -69 60 -84 96 -12 27 -14 189 -14 906 0 614 -3 883
-11 906 -12 33 -52 61 -89 61 -33 0 -75 -26 -88 -55 -9 -19 -12 -245 -12 -906
0 -722 -2 -885 -14 -912 -48 -112 -158 -141 -244 -63 -54 49 -54 45 -74 601
-22 618 -44 1250 -51 1428 l-5 127 489 0 489 0 -1 -102z"></path>
    </g>
</svg>