<svg version="1.0" width="1024.000000pt" height="1024.000000pt" viewBox="0 0 1024.000000 1024.000000" preserveAspectRatio="xMidYMid meet" xmlns="http://www.w3.org/2000/svg">
    <defs></defs>
    <g transform="matrix(0.290718, 0, 0, -0.192471, -1001.577759, 1479.027832)" fill="#000000" stroke="none" style="">
        <path d="M3962 7668 c-9 -9 -12 -232 -12 -940 0 -838 2 -931 16 -953 21 -32
67 -34 88 -3 14 20 16 123 16 910 l0 888 1035 0 1035 0 190 -190 190 -190 0
-745 0 -745 -1518 0 c-1459 0 -1520 -1 -1535 -18 -16 -17 -17 -139 -17 -1548
l1 -1529 23 -53 c29 -67 92 -135 150 -162 45 -20 57 -20 1591 -20 1424 0 1550
1 1583 17 41 18 142 117 142 138 0 7 7 26 15 41 13 25 15 222 15 1566 0 1384
-2 1538 -16 1552 -13 13 -43 16 -170 16 l-154 0 0 785 c0 432 -4 785 -9 785
-4 0 -73 66 -152 146 -79 80 -159 160 -178 177 -19 18 -46 44 -59 60 l-25 27
-1117 0 c-855 0 -1119 -3 -1128 -12z m2886 -3570 c-3 -1376 -4 -1486 -20
-1519 -22 -46 -68 -85 -116 -99 -46 -12 -2939 -14 -2994 -1 -46 11 -97 52
-123 100 -20 35 -20 57 -23 1519 l-2 1482 1640 0 1640 0 -2 -1482z"></path>
        <path d="M5134 5191 c-29 -13 -84 -70 -95 -98 -5 -13 -9 -47 -9 -74 0 -57 38
-134 71 -144 10 -4 19 -10 19 -15 0 -4 18 -11 40 -15 32 -5 40 -11 36 -23 -3
-10 1 -42 9 -72 21 -78 19 -109 -12 -160 -30 -52 -34 -114 -10 -170 8 -19 18
-56 22 -82 6 -40 3 -54 -18 -90 -33 -57 -39 -102 -26 -173 13 -70 33 -113 63
-137 63 -52 107 19 71 117 -22 61 -18 99 15 160 17 30 30 65 30 77 0 12 -12
65 -26 119 l-25 97 28 44 c24 38 28 53 28 119 0 71 -4 88 -40 160 -11 24 -10
27 16 43 46 27 69 75 69 146 0 65 -30 140 -56 140 -7 0 -17 8 -23 17 -7 14
-25 18 -83 20 -40 2 -82 -1 -94 -6z"></path>
        <path d="M3966 3444 c-14 -13 -16 -53 -16 -280 0 -164 4 -273 10 -285 11 -19
35 -19 1249 -19 l1239 0 16 25 c24 36 24 514 0 550 l-16 25 -1233 0 c-1108 0
-1235 -2 -1249 -16z m2384 -294 l0 -190 -1140 0 -1140 0 0 190 0 190 1140 0
1140 0 0 -190z"></path>
        <path d="M4223 3203 c-32 -21 -30 -66 2 -87 22 -14 118 -16 993 -16 926 0 970
1 985 18 23 25 21 64 -3 85 -19 16 -86 17 -988 16 -862 0 -969 -2 -989 -16z"></path>
        <path d="M3807 7552 c-16 -17 -17 -93 -17 -893 0 -481 4 -880 8 -886 14 -22
67 -27 85 -8 16 15 17 89 17 894 0 838 -1 879 -18 894 -24 22 -55 21 -75 -1z"></path>
        <path d="M6046 7514 c-14 -14 -16 -44 -14 -222 l3 -207 210 -3 210 -2 13 29
c11 26 11 33 -4 55 l-16 26 -154 0 -154 0 0 153 c0 136 -2 156 -18 170 -23 21
-56 22 -76 1z"></path>
        <path d="M4433 6480 c-17 -7 -23 -17 -23 -42 0 -68 -68 -63 876 -66 789 -2
859 -1 876 14 25 23 24 80 -1 94 -25 13 -1696 13 -1728 0z"></path>
        <path d="M4428 6146 c-23 -17 -23 -68 0 -89 17 -16 91 -17 868 -17 690 1 852
3 867 14 10 8 17 26 17 46 0 20 -7 38 -17 46 -26 20 -1710 20 -1735 0z"></path>
        <path d="M3639 6096 c-46 -47 -59 -63 -59 -70 0 -4 -10 -22 -23 -39 -12 -18
-27 -39 -32 -48 -6 -10 -25 -38 -42 -63 -39 -56 -41 -75 -10 -104 42 -40 86
-21 124 52 8 16 31 52 51 80 77 110 82 119 82 157 0 28 -5 41 -19 49 -30 15
-46 12 -72 -14z"></path>
        <path d="M6706 6104 c-23 -22 -20 -76 7 -115 13 -19 44 -65 70 -102 26 -38 47
-71 47 -74 0 -17 59 -63 81 -63 31 0 59 28 59 59 0 25 -47 111 -61 111 -5 0
-9 5 -9 10 0 13 -100 161 -120 177 -21 17 -56 16 -74 -3z"></path>
    </g>
</svg>