<svg xmlns="http://www.w3.org/2000/svg" xmlns:xlink="http://www.w3.org/1999/xlink" width="59" height="58" viewBox="0 0 59 58">
  <defs>
    <clipPath id="clip-Personal_Information">
      <rect width="59" height="58"/>
    </clipPath>
  </defs>
  <g id="Personal_Information" data-name="Personal Information" clip-path="url(#clip-Personal_Information)">
    <g id="Group_172" data-name="Group 172" transform="translate(0 1)">
      <g id="Group_162" data-name="Group 162" transform="translate(-26 -373)">
        <g id="Ellipse_49" data-name="Ellipse 49" transform="translate(30 375)" fill="none" stroke="#fbb" stroke-width="1">
          <circle cx="26.5" cy="26.5" r="26.5" stroke="none"/>
          <circle cx="26.5" cy="26.5" r="26" fill="none"/>
        </g>
        <g id="Group_78" data-name="Group 78" transform="translate(44 389)">
          <g id="Group_72" data-name="Group 72">
            <path id="Path_231" data-name="Path 231" d="M21.415,24.123H3.727A3.735,3.735,0,0,1,0,20.4V3.727A3.729,3.729,0,0,1,3.727,0H21.415a3.729,3.729,0,0,1,3.727,3.727V20.4A3.746,3.746,0,0,1,21.415,24.123ZM3.727,1.407A2.319,2.319,0,0,0,1.407,3.727V20.4a2.324,2.324,0,0,0,2.321,2.321H21.415A2.324,2.324,0,0,0,23.736,20.4V3.727a2.324,2.324,0,0,0-2.321-2.321H3.727Z" fill="#c91a1f"/>
          </g>
          <g id="Group_73" data-name="Group 73" transform="translate(6.391 16.158)">
            <rect id="Rectangle_83" data-name="Rectangle 83" width="12.352" height="1.407" fill="#c91a1f"/>
          </g>
          <g id="Group_74" data-name="Group 74" transform="translate(8.44 19.174)">
            <rect id="Rectangle_84" data-name="Rectangle 84" width="8.255" height="1.407" fill="#c91a1f"/>
          </g>
          <g id="Group_77" data-name="Group 77" transform="translate(9.002 3.305)">
            <g id="Group_75" data-name="Group 75" transform="translate(1.345)">
              <path id="Path_232" data-name="Path 232" d="M119.924,42.048a2.224,2.224,0,1,1,2.224-2.224A2.221,2.221,0,0,1,119.924,42.048Zm0-3.042a.818.818,0,1,0,.818.818A.822.822,0,0,0,119.924,39.007Z" transform="translate(-117.7 -37.6)" fill="#c91a1f"/>
            </g>
            <g id="Group_76" data-name="Group 76" transform="translate(0 4.73)">
              <path id="Path_233" data-name="Path 233" d="M109.538,97.536H102.4V93.229l3.648-1.829,3.5,1.837v4.3Zm-5.732-1.407h4.325V94.081l-2.1-1.108-2.224,1.116Z" transform="translate(-102.4 -91.4)" fill="#c91a1f"/>
            </g>
          </g>
        </g>
      </g>
    </g>
  </g>
</svg>
