<?xml version="1.0" encoding="UTF-8"?>
<svg xmlns="http://www.w3.org/2000/svg" id="Layer_3" data-name="Layer 3" viewBox="0 0 64 64" width="512" height="512"><path d="M62,1H58a1,1,0,0,0-1,1V19H55V10a1,1,0,0,0-1-1H42a1,1,0,0,0-1,1v9H39V10a1,1,0,0,0-1-1H26a1,1,0,0,0-1,1v9H23V10a1,1,0,0,0-1-1H10a1,1,0,0,0-1,1v9H7V2A1,1,0,0,0,6,1H2A1,1,0,0,0,1,2V62a1,1,0,0,0,1,1H6a1,1,0,0,0,1-1V61H57v1a1,1,0,0,0,1,1h4a1,1,0,0,0,1-1V2A1,1,0,0,0,62,1ZM5,61H3V3H5ZM47,11h2v2.586l-.293-.293a1,1,0,0,0-1.414,0L47,13.586Zm-4,0h2v5a1,1,0,0,0,1.707.707L48,15.414l1.293,1.293A1,1,0,0,0,51,16V11h2v8H43ZM31,11h2v2.586l-.293-.293a1,1,0,0,0-1.414,0L31,13.586Zm-4,0h2v5a1,1,0,0,0,1.707.707L32,15.414l1.293,1.293A1,1,0,0,0,35,16V11h2v8H27ZM15,11h2v2.586l-.293-.293a1,1,0,0,0-1.414,0L15,13.586Zm-4,0h2v5a1,1,0,0,0,1.707.707L16,15.414l1.293,1.293A1,1,0,0,0,19,16V11h2v8H11ZM57,21v2H7V21ZM47,47h2v2.586l-.293-.293a1,1,0,0,0-1.414,0L47,49.586Zm-1.383,5.924a1,1,0,0,0,1.09-.217L48,51.414l1.293,1.293A1,1,0,0,0,50,53a.987.987,0,0,0,.383-.076A1,1,0,0,0,51,52V47h2v8H43V47h2v5A1,1,0,0,0,45.617,52.924ZM54,45H42a1,1,0,0,0-1,1v9H39V46a1,1,0,0,0-1-1H26a1,1,0,0,0-1,1v9H23V46a1,1,0,0,0-1-1H10a1,1,0,0,0-1,1v9H7V43H57V55H55V46A1,1,0,0,0,54,45ZM31,47h2v2.586l-.293-.293a1,1,0,0,0-1.414,0L31,49.586Zm-1.383,5.924a1,1,0,0,0,1.09-.217L32,51.414l1.293,1.293A1,1,0,0,0,34,53a.987.987,0,0,0,.383-.076A1,1,0,0,0,35,52V47h2v8H27V47h2v5A1,1,0,0,0,29.617,52.924ZM15,47h2v2.586l-.293-.293a1,1,0,0,0-1.414,0L15,49.586Zm-1.383,5.924a1,1,0,0,0,1.09-.217L16,51.414l1.293,1.293A1,1,0,0,0,18,53a.987.987,0,0,0,.383-.076A1,1,0,0,0,19,52V47h2v8H11V47h2v5A1,1,0,0,0,13.617,52.924ZM7,41V39H57v2Zm8-12h2v2.586l-.293-.293a1,1,0,0,0-1.414,0L15,31.586Zm-1.383,5.924a1,1,0,0,0,1.09-.217L16,33.414l1.293,1.293A1,1,0,0,0,18,35a.987.987,0,0,0,.383-.076A1,1,0,0,0,19,34V29h2v8H11V29h2v5A1,1,0,0,0,13.617,34.924ZM31,29h2v2.586l-.293-.293a1,1,0,0,0-1.414,0L31,31.586Zm-1.383,5.924a1,1,0,0,0,1.09-.217L32,33.414l1.293,1.293A1,1,0,0,0,34,35a.987.987,0,0,0,.383-.076A1,1,0,0,0,35,34V29h2v8H27V29h2v5A1,1,0,0,0,29.617,34.924ZM47,29h2v2.586l-.293-.293a1,1,0,0,0-1.414,0L47,31.586Zm-1.383,5.924a1,1,0,0,0,1.09-.217L48,33.414l1.293,1.293A1,1,0,0,0,50,35a.987.987,0,0,0,.383-.076A1,1,0,0,0,51,34V29h2v8H43V29h2v5A1,1,0,0,0,45.617,34.924ZM55,37V28a1,1,0,0,0-1-1H42a1,1,0,0,0-1,1v9H39V28a1,1,0,0,0-1-1H26a1,1,0,0,0-1,1v9H23V28a1,1,0,0,0-1-1H10a1,1,0,0,0-1,1v9H7V25H57V37ZM7,59V57H57v2Zm54,2H59V3h2Z"/></svg>
