<svg id="Capa_1" enable-background="new 0 0 512.003 512.003" height="512" viewBox="0 0 512.003 512.003" width="512" xmlns="http://www.w3.org/2000/svg"><g><path d="m194.688 90.252c2.734 1.463 5.692 2.16 8.617 2.159 6.153 0 12.159-3.086 15.617-8.619l6.753-10.805c3.761-6.018 9.935-10.127 16.939-11.272 8.741-1.431 17.63 1.966 23.191 8.863l4.863 6.033c4.941 6.127 13.174 8.287 20.485 5.376 8.294-3.301 12.891-12.314 10.692-20.966l-1.261-4.963 38.828-16.773c3.802-1.643 5.553-6.057 3.91-9.859-1.642-3.801-6.051-5.552-9.859-3.91l-39.009 16.852c-6.695 2.891-10.252 10.119-8.458 17.189l1.311 5.158c.351 1.377-.382 2.811-1.7 3.336-1.162.462-2.475.121-3.262-.854l-4.863-6.033c-8.943-11.09-23.229-16.551-37.292-14.251-11.262 1.842-21.188 8.448-27.237 18.126l-6.753 10.804c-.935 1.495-2.886 2.012-4.438 1.184-1.687-.902-2.284-3.033-1.305-4.682l8.84-14.888c5.935-9.996 15.151-17.867 25.953-22.165l21.709-8.637 36.027-12.038c3.929-1.312 6.049-5.562 4.736-9.49-1.312-3.928-5.563-6.051-9.49-4.736l-36.227 12.104c-.133.044-.265.093-.396.145l-21.905 8.715c-13.862 5.515-25.69 15.617-33.307 28.444l-8.84 14.888c-5.331 8.981-2.085 20.635 7.131 25.565z"/><path d="m199.825 301.546v112.589c0 4.143 3.357 7.5 7.5 7.5s7.5-3.357 7.5-7.5v-112.589c0-4.143-3.357-7.5-7.5-7.5s-7.5 3.357-7.5 7.5z"/><path d="m248.5 278.403v158.874c0 4.143 3.357 7.5 7.5 7.5s7.5-3.357 7.5-7.5v-158.874c0-4.143-3.357-7.5-7.5-7.5-4.142 0-7.5 3.357-7.5 7.5z"/><path d="m297.175 301.546v112.589c0 4.143 3.357 7.5 7.5 7.5s7.5-3.357 7.5-7.5v-112.589c0-4.143-3.357-7.5-7.5-7.5s-7.5 3.357-7.5 7.5z"/><path d="m388.172 262.957h-3.292l3.141-44.279h13.818c7.654 0 13.882-6.228 13.882-13.882v-25.473c0-7.654-6.228-13.882-13.882-13.882h-230.301c-4.143 0-7.5 3.357-7.5 7.5s3.357 7.5 7.5 7.5h229.183v23.236h-289.44v-23.236h30.271c4.143 0 7.5-3.357 7.5-7.5s-3.357-7.5-7.5-7.5h-31.391c-7.654 0-13.881 6.228-13.881 13.882v25.473c0 7.654 6.227 13.882 13.881 13.882h13.819l3.141 44.279h-3.292c-15.471 0-28.057 12.586-28.057 28.057v27.227c0 15.471 12.586 28.057 28.057 28.057h9.204l8.752 123.362c1.685 23.744 21.651 42.344 45.455 42.344h137.52c23.804 0 43.771-18.6 45.455-42.345l2.837-40c.293-4.132-2.819-7.719-6.951-8.012-4.132-.288-7.719 2.818-8.012 6.951l-2.837 39.999c-1.13 15.929-14.523 28.406-30.492 28.406h-137.52c-15.969 0-29.362-12.478-30.492-28.405l-17.73-249.92h233.966l-12.766 179.932c-.293 4.131 2.819 7.719 6.951 8.012 4.118.292 7.719-2.818 8.012-6.95l3.787-53.375h9.205c15.471 0 28.058-12.586 28.058-28.057v-27.227c-.001-15.47-12.588-28.056-28.059-28.056zm-264.343 68.339c-7.199 0-13.057-5.857-13.057-13.057v-27.227c0-7.199 5.857-13.057 13.057-13.057h4.356l3.784 53.34h-8.14zm277.401-13.056c0 7.199-5.857 13.057-13.058 13.057h-8.14l3.784-53.34h4.356c7.2 0 13.058 5.857 13.058 13.057z"/><path d="m237.897 103.952c4.382-1.694 9.205-1.546 13.579.414.621.279 1.252.61 1.875.984 3.552 2.13 8.159.979 10.29-2.573s.979-8.158-2.573-10.29c-1.129-.677-2.289-1.284-3.451-1.806-8.062-3.617-16.989-3.871-25.134-.719-8.149 3.154-14.581 9.354-18.109 17.457-7.083 16.262.31 35.431 16.478 42.731 4.736 2.139 9.969 3.132 15.118 2.849 7.127-.383 13.446.805 18.767 3.514 3.531 1.8 7.352 2.666 11.131 2.666 3.185 0 6.372-.616 9.359-1.852 6.31-2.609 11.121-7.574 13.548-13.979 4.354-11.486-.542-24.494-11.384-30.256-.899-.478-3.609-1.68-3.712-1.724-3.757-1.752-8.217-.126-9.968 3.626-1.751 3.754-.127 8.217 3.626 9.968.101.045 2.773 1.246 3.01 1.373 4.124 2.191 6.058 7.329 4.402 11.696-.945 2.493-2.812 4.423-5.256 5.434-2.445 1.012-5.121.971-7.539-.122-.136-.062-.27-.125-.406-.195-7.703-3.924-16.576-5.657-26.374-5.128-2.811.151-5.554-.369-8.148-1.54-8.73-3.943-12.723-14.293-8.899-23.072 1.915-4.402 5.385-7.76 9.77-9.456z"/></g></svg>