<svg version="1.0" width="1024.000000pt" height="1024.000000pt" viewBox="0 0 1024.000000 1024.000000" preserveAspectRatio="xMidYMid meet" xmlns="http://www.w3.org/2000/svg">
    <defs></defs>
    <g transform="matrix(0.209892, 0, 0, -0.21036, -563.199402, 1587.358032)" fill="#000000" stroke="none" style="">
        <path d="M4445 7528 c-11 -7 -26 -18 -33 -25 -7 -7 -17 -13 -21 -13 -5 0 -26
-25 -47 -56 l-39 -56 -3 -279 -3 -279 -58 0 c-31 0 -61 -4 -66 -9 -6 -4 -53
-14 -104 -21 -52 -7 -102 -16 -110 -20 -9 -5 -59 -22 -111 -39 -91 -29 -200
-71 -210 -81 -3 -3 -31 -18 -62 -35 -32 -16 -58 -32 -58 -35 0 -4 -16 -12 -35
-20 -19 -8 -35 -18 -35 -22 0 -5 -11 -13 -25 -18 -14 -5 -25 -14 -25 -20 0 -5
-5 -10 -11 -10 -16 0 -68 -43 -179 -150 -82 -80 -124 -127 -208 -235 -56 -73
-182 -305 -182 -337 0 -9 -4 -20 -10 -23 -5 -3 -14 -25 -20 -48 -6 -23 -18
-57 -26 -75 -9 -18 -18 -58 -21 -88 -3 -30 -9 -54 -13 -54 -17 0 -30 -163 -30
-365 0 -202 13 -365 30 -365 4 0 10 -24 13 -54 3 -30 12 -70 21 -88 8 -18 20
-52 26 -75 6 -23 15 -45 20 -48 6 -3 10 -14 10 -23 0 -32 128 -268 183 -337 4
-5 30 -39 59 -75 79 -102 299 -310 327 -310 6 0 11 -5 11 -10 0 -6 11 -15 25
-20 14 -5 25 -13 25 -18 0 -4 16 -14 35 -22 19 -8 35 -16 35 -20 0 -3 26 -19
58 -35 31 -17 59 -33 62 -36 3 -3 23 -12 45 -19 22 -7 45 -16 50 -21 6 -4 56
-22 110 -39 55 -18 107 -36 116 -40 9 -5 62 -14 118 -21 55 -7 101 -17 101
-21 0 -4 27 -8 59 -8 l60 0 3 -279 3 -279 39 -56 c21 -31 42 -56 47 -56 4 0
14 -6 21 -12 42 -39 11 -38 1521 -38 l1463 0 45 28 c24 16 58 46 74 68 l30 39
3 1900 2 1900 -457 457 -458 458 -1085 0 c-802 -1 -1090 -4 -1105 -12z m2035
-509 c0 -324 1 -342 21 -387 28 -63 73 -109 136 -138 51 -24 54 -24 392 -24
l341 0 0 -1777 0 -1777 -22 -23 -21 -23 -1398 0 -1398 0 -15 22 c-14 19 -16
62 -16 269 l0 247 58 5 c90 8 267 40 270 49 2 4 12 8 22 8 63 0 381 136 437
187 7 6 22 15 33 18 11 3 20 10 20 15 0 5 8 11 19 15 10 3 28 13 40 23 12 9
33 26 47 37 125 96 212 187 363 381 5 5 14 21 21 34 7 14 19 31 27 38 7 7 13
19 13 26 0 7 9 23 20 36 11 13 20 29 20 37 0 7 5 13 10 13 6 0 10 5 10 11 0 6
11 33 25 61 14 27 25 54 25 59 0 6 8 29 19 52 10 23 22 58 26 77 4 19 11 40
16 46 4 5 14 44 20 85 7 40 16 79 21 86 5 6 14 81 20 165 12 170 6 201 -42
225 -19 10 -194 13 -792 13 l-768 0 0 1053 c0 936 2 1055 16 1075 l15 22 975
0 974 0 0 -341z m488 -89 l265 -265 -234 -3 c-267 -3 -301 2 -318 50 -7 19
-11 123 -11 271 0 222 1 238 17 226 9 -8 135 -133 281 -279z m-2668 -1038 l0
-737 -520 -520 c-514 -514 -519 -519 -540 -500 -11 10 -20 23 -20 28 0 6 -7
17 -15 26 -27 28 -94 123 -100 143 -4 10 -10 18 -14 18 -4 0 -13 16 -21 35 -8
19 -17 35 -22 35 -4 0 -8 7 -8 15 0 14 -19 54 -30 65 -4 3 -12 25 -19 50 -7
25 -16 50 -20 55 -4 6 -14 36 -21 68 -7 31 -17 57 -22 57 -4 0 -8 15 -9 33 -1
46 -23 164 -32 173 -10 10 -9 331 2 352 10 19 31 147 31 187 0 14 4 25 8 25 5
0 15 26 22 58 7 31 17 62 21 67 4 6 13 30 20 55 7 25 15 47 19 50 11 11 30 51
30 65 0 8 3 15 8 15 4 0 15 17 25 38 70 149 280 386 442 497 44 30 87 60 95
65 48 33 178 98 210 105 17 4 30 10 30 14 0 4 26 14 58 21 31 7 59 16 62 20 5
7 66 21 220 49 25 5 60 9 78 10 l32 1 0 -738z m1610 -894 c0 -42 -23 -203 -30
-213 -4 -5 -11 -28 -15 -50 -7 -43 -38 -138 -62 -195 -32 -73 -68 -145 -75
-148 -5 -2 -8 -9 -8 -17 0 -17 -111 -181 -165 -244 -89 -102 -189 -192 -289
-259 -39 -26 -77 -53 -84 -59 -7 -7 -24 -16 -38 -19 -13 -3 -24 -9 -24 -13 0
-5 -18 -14 -40 -21 -22 -7 -40 -16 -40 -20 0 -4 -19 -13 -42 -20 -24 -7 -52
-18 -63 -26 -11 -8 -28 -14 -38 -14 -11 0 -33 -6 -50 -14 -30 -14 -119 -34
-242 -56 -65 -11 -346 -11 -410 0 -152 27 -220 43 -225 50 -3 4 -31 13 -62 20
-32 7 -58 17 -58 21 0 4 -13 10 -30 14 -16 4 -57 21 -91 38 -33 18 -72 38 -87
46 -15 8 -29 17 -32 20 -3 3 -38 28 -77 55 -40 26 -73 52 -73 57 0 5 -6 9 -13
9 -8 0 -22 8 -31 19 -16 18 4 39 505 540 l521 521 734 0 734 0 0 -22z"></path>
        <path d="M4644 7114 c-18 -28 -19 -56 -22 -863 -2 -822 -2 -834 18 -866 11
-18 30 -35 43 -39 12 -3 396 -6 854 -6 l832 0 28 24 28 24 -3 136 c-4 216 -51
425 -139 616 -12 25 -23 53 -27 63 -3 9 -10 17 -15 17 -5 0 -12 12 -16 27 -3
14 -15 38 -26 51 -10 14 -19 29 -19 34 0 26 -178 248 -254 317 -16 14 -47 45
-70 67 -39 39 -189 154 -201 154 -3 0 -27 15 -53 33 -122 84 -381 186 -517
203 -27 4 -53 12 -57 18 -4 6 -77 12 -185 14 l-179 4 -20 -28z m307 -176 c49
-6 89 -15 89 -20 0 -4 12 -8 26 -8 31 0 117 -21 124 -30 3 -4 29 -13 58 -20
28 -6 52 -15 52 -20 0 -4 20 -13 45 -20 25 -7 45 -17 45 -21 0 -5 6 -9 13 -9
7 0 46 -20 86 -45 40 -25 76 -45 81 -45 4 0 10 -7 14 -15 3 -8 11 -15 17 -15
24 0 243 -205 306 -286 41 -53 125 -183 145 -224 7 -14 18 -31 25 -37 6 -7 14
-26 18 -43 4 -16 11 -30 16 -30 5 0 9 -8 9 -18 0 -10 9 -35 20 -56 10 -21 24
-63 30 -92 6 -30 15 -56 19 -59 5 -2 14 -52 21 -110 8 -58 17 -105 22 -105 4
0 8 -16 8 -35 l0 -35 -710 0 -710 0 0 705 0 705 21 0 c12 0 62 -5 110 -12z"></path>
        <path d="M6573 6173 c-9 -3 -13 -32 -13 -93 0 -71 3 -89 16 -94 9 -3 159 -6
335 -6 l319 0 0 100 0 100 -322 -1 c-178 0 -329 -3 -335 -6z"></path>
        <path d="M6573 5693 c-9 -3 -13 -32 -13 -93 0 -71 3 -89 16 -94 9 -3 159 -6
335 -6 l319 0 0 100 0 100 -322 -1 c-178 0 -329 -3 -335 -6z"></path>
        <path d="M6564 5197 c-3 -8 -4 -49 -2 -93 l3 -79 333 -3 332 -2 0 95 0 95
-330 0 c-267 0 -332 -3 -336 -13z"></path>
        <path d="M6410 4481 c-14 -5 -54 -14 -89 -20 -35 -7 -71 -16 -80 -21 -9 -4
-43 -21 -76 -36 -165 -78 -284 -211 -368 -414 -57 -136 -51 -374 14 -530 26
-63 98 -180 111 -180 4 0 8 -5 8 -11 0 -10 69 -79 112 -114 53 -42 164 -100
210 -110 18 -4 39 -12 47 -19 19 -15 389 -15 399 0 4 6 31 17 60 24 28 6 52
16 52 20 0 4 11 11 25 14 88 22 299 233 321 321 3 14 10 25 14 25 4 0 14 24
20 53 7 28 18 55 24 59 7 5 12 69 14 182 3 141 1 182 -11 206 -9 16 -18 43
-22 60 -12 54 -73 163 -125 224 -66 78 -187 175 -217 176 -7 0 -13 3 -13 8 0
11 -137 60 -205 73 -81 15 -194 20 -225 10z m223 -207 c68 -20 171 -69 187
-89 7 -8 16 -15 21 -15 14 0 98 -92 112 -122 6 -16 15 -28 19 -28 5 0 8 -5 8
-10 0 -6 9 -29 19 -53 11 -23 24 -60 30 -82 14 -52 14 -208 0 -260 -17 -64
-53 -149 -66 -158 -7 -4 -13 -13 -13 -19 0 -20 -128 -148 -148 -148 -6 0 -15
-6 -19 -13 -10 -15 -99 -51 -166 -68 -29 -7 -90 -10 -155 -7 -89 4 -117 9
-165 31 -32 15 -62 27 -67 27 -6 0 -10 3 -10 8 0 4 -12 13 -27 19 -31 14 -123
98 -123 112 0 5 -7 14 -15 21 -20 16 -58 97 -85 176 -21 62 -29 247 -11 258 5
3 12 23 16 43 8 45 54 144 73 156 6 4 12 12 12 18 0 5 22 32 50 59 27 28 54
50 59 50 6 0 14 6 18 13 12 18 111 64 156 72 20 4 40 11 43 16 9 15 191 10
247 -7z"></path>
        <path d="M6546 3849 l-209 -211 -50 49 c-27 26 -66 65 -86 86 -19 20 -42 37
-50 37 -16 0 -131 -108 -131 -123 0 -5 60 -70 134 -143 l134 -134 48 0 48 0
253 252 c139 139 253 258 253 265 0 14 -113 133 -126 133 -5 -1 -103 -96 -218
-211z"></path>
    </g>
</svg>