<svg xmlns="http://www.w3.org/2000/svg" xmlns:xlink="http://www.w3.org/1999/xlink" width="45" height="37" viewBox="0 0 45 37">
  <defs>
    <clipPath id="clip-Road_tax_Pollution_check">
      <rect width="45" height="37"/>
    </clipPath>
  </defs>
  <g id="Road_tax_Pollution_check" data-name="Road tax, Pollution check" clip-path="url(#clip-Road_tax_Pollution_check)">
    <g id="Group_168" data-name="Group 168" transform="translate(6 5.957)">
      <g id="Group_132" data-name="Group 132">
        <path id="Path_269" data-name="Path 269" d="M28.5,24.333H4.167A4.16,4.16,0,0,1,0,20.166v-16A4.16,4.16,0,0,1,4.167,0H28.5a4.16,4.16,0,0,1,4.167,4.167V20.2A4.152,4.152,0,0,1,28.5,24.333ZM4.167,1.488A2.668,2.668,0,0,0,1.488,4.167V20.2a2.668,2.668,0,0,0,2.679,2.679H28.5A2.668,2.668,0,0,0,31.178,20.2V4.167A2.668,2.668,0,0,0,28.5,1.488Z" fill="#233167"/>
      </g>
      <g id="Group_133" data-name="Group 133" transform="translate(8.892 5.172)">
        <path id="Path_270" data-name="Path 270" d="M24.793,21.75a4.943,4.943,0,0,1-.893-3.237,4.9,4.9,0,0,1,.893-3.2,3.077,3.077,0,0,1,2.493-1.079,3.077,3.077,0,0,1,2.493,1.079,4.9,4.9,0,0,1,.893,3.2,5.083,5.083,0,0,1-.893,3.237,3.077,3.077,0,0,1-2.493,1.079A3.077,3.077,0,0,1,24.793,21.75Zm3.907-.819a4.854,4.854,0,0,0,.484-2.381A4.468,4.468,0,0,0,28.7,16.17a1.516,1.516,0,0,0-1.451-.744,1.586,1.586,0,0,0-1.451.744,4.468,4.468,0,0,0-.484,2.381,4.382,4.382,0,0,0,.484,2.381,1.787,1.787,0,0,0,2.9,0Zm-1.377,7.33L35.62,13.9l1.191.67-8.334,14.4Zm7.032-.744a4.943,4.943,0,0,1-.893-3.237,4.9,4.9,0,0,1,.893-3.2,3.419,3.419,0,0,1,4.986,0,4.9,4.9,0,0,1,.893,3.2,5.083,5.083,0,0,1-.893,3.237,3.419,3.419,0,0,1-4.986,0ZM38.3,26.7a4.815,4.815,0,0,0,.484-2.418A4.468,4.468,0,0,0,38.3,21.9a1.591,1.591,0,0,0-1.451-.744A1.628,1.628,0,0,0,35.4,21.9a4.854,4.854,0,0,0-.484,2.381,4.382,4.382,0,0,0,.484,2.381,1.814,1.814,0,0,0,2.9.037Z" transform="translate(-23.9 -13.9)" fill="#233167"/>
      </g>
    </g>
  </g>
</svg>
