<?xml version="1.0" encoding="iso-8859-1"?>
<!-- Generator: Adobe Illustrator 16.0.0, SVG Export Plug-In . SVG Version: 6.00 Build 0)  -->
<!DOCTYPE svg PUBLIC "-//W3C//DTD SVG 1.1//EN" "http://www.w3.org/Graphics/SVG/1.1/DTD/svg11.dtd">
<svg version="1.1" id="Capa_1" xmlns="http://www.w3.org/2000/svg" xmlns:xlink="http://www.w3.org/1999/xlink" x="0px" y="0px"
	 width="47.018px" height="47.018px" viewBox="0 0 47.018 47.018" style="enable-background:new 0 0 47.018 47.018;"
	 xml:space="preserve">
<g>
	<g>
		<g>
			<g>
				<path d="M18.848,26.241H4.676C2.08,26.241,0,28.313,0,30.909v7.771c0,2.527,2.038,4.576,4.565,4.576l14.299-0.006l0.044,0.002
					l0,0c0.059,0,0.116,0,0.174,0h0.012h-0.006c2.409-0.096,4.329-2.078,4.329-4.51v-7.959
					C23.417,28.257,21.376,26.241,18.848,26.241z M21.834,38.974c0,1.479-1.205,2.883-2.683,2.904l-14.85,0.01l-0.257-0.023
					c-1.39-0.127-2.461-1.295-2.461-2.691v-8.662c0-1.493,1.222-2.686,2.714-2.686h14.824c1.493,0,2.712,1.192,2.712,2.686
					L21.834,38.974L21.834,38.974z"/>
				<path d="M5.581,40.637V28.651H4.616c-1.099,0-1.998,0.858-1.998,1.956v8.03c0,1.098,0.899,1.999,1.998,1.999H5.581z"/>
				<rect x="14.396" y="28.651" width="2.548" height="11.984"/>
				<rect x="9.3" y="28.651" width="1.857" height="11.984"/>
				<rect x="12.26" y="28.651" width="1.033" height="11.984"/>
				<rect x="6.614" y="28.651" width="1.653" height="11.984"/>
			</g>
			<path d="M17.978,28.651v11.984h0.825c1.097,0,1.998-0.9,1.998-1.999v-8.03c0-1.098-0.901-1.956-1.998-1.956L17.978,28.651
				L17.978,28.651z"/>
		</g>
		<path d="M45.405,43.046H44.63c-0.503,0-0.946-0.604-1.104-1.077l-7.807-23.562c2.86-1.08,4.844-3.902,4.844-7.068
			c0-3.71-2.719-6.896-6.391-7.439L15.668,1.14c-1.046-0.155-2.174,0.144-2.976,0.835c-0.8,0.691-1.328,1.687-1.328,2.744v13.099
			c0,1.057,0.528,2.062,1.328,2.753c0.802,0.69,1.896,0.999,2.942,0.844l8.838-1.308c0,0,2.041,6.273,2.021,6.284
			c0.136,0.532,0.128,1.103-0.051,1.655l-0.398,1.225c-0.25,0.771,0.027,1.604,0.689,2.072l1.062,0.752
			c0.94,0.664,1.397,1.787,1.226,2.9c0,0.01-0.004,0.019-0.008,0.026c-0.021,0.136-0.047,0.271-0.091,0.401l-0.462,1.494
			c-0.135,0.703,0.145,1.422,0.74,1.845l1.062,0.751c0.976,0.639,1.157,1.438,1.157,1.438c0.119,0.355,0.068,0.746-0.151,1.049
			c-0.219,0.304-0.565,0.482-0.939,0.482c-0.893,0-1.611,0.872-1.611,1.764c0,0.893,0.725,1.764,1.615,1.764h2.691h11.84h0.537
			c0.893,0,1.615-0.59,1.615-1.48C47.02,43.636,46.296,43.046,45.405,43.046z"/>
		<g>
			<path d="M8.025,18.104c-0.553,0-0.998-0.448-0.998-1.001V5.098c0-0.552,0.445-1,0.998-1c0.554,0,0.998,0.448,0.998,1v12.006
				C9.023,17.657,8.579,18.104,8.025,18.104z"/>
		</g>
		<g>
			<path d="M4.031,21.02c-0.555,0-0.999-0.448-0.999-1.001V2.009c0-0.552,0.444-1,0.999-1c0.553,0,0.998,0.448,0.998,1v18.01
				C5.029,20.572,4.583,21.02,4.031,21.02z"/>
		</g>
	</g>
</g>
<g>
</g>
<g>
</g>
<g>
</g>
<g>
</g>
<g>
</g>
<g>
</g>
<g>
</g>
<g>
</g>
<g>
</g>
<g>
</g>
<g>
</g>
<g>
</g>
<g>
</g>
<g>
</g>
<g>
</g>
</svg>
