<svg version="1.0" width="1024.000000pt" height="1024.000000pt" viewBox="0 0 1024.000000 1024.000000" preserveAspectRatio="xMidYMid meet" xmlns="http://www.w3.org/2000/svg">
    <defs></defs>
    <g transform="matrix(0.205647, 0, 0, -0.205847, -539.900208, 1565.244385)" fill="#000000" stroke="none" style="">
        <path d="M4739 7585 c-411 -64 -858 -265 -1182 -530 -53 -44 -111 -91 -129
-105 -64 -50 -309 -343 -391 -467 -159 -244 -300 -582 -364 -877 -24 -112 -26
-144 -30 -433 -5 -349 1 -421 62 -658 71 -278 213 -590 369 -813 81 -115 85
-124 72 -145 -26 -40 -46 -129 -46 -203 0 -122 49 -227 150 -317 74 -66 137
-87 265 -87 120 0 162 12 243 72 50 37 123 123 128 150 1 7 9 33 18 57 23 64
21 193 -5 277 -18 59 -30 77 -88 134 -91 92 -158 122 -276 128 -73 3 -102 0
-152 -17 -34 -12 -64 -21 -67 -21 -2 0 -39 53 -82 118 -121 183 -235 410 -268
534 -8 29 -26 96 -40 148 -91 332 -105 686 -40 1008 27 135 81 335 115 422 63
165 241 462 364 610 70 83 252 263 330 326 87 70 295 202 415 264 170 86 198
96 465 166 285 75 607 88 916 38 116 -19 149 -15 185 21 32 32 33 100 3 138
-23 30 -63 43 -194 63 -121 18 -626 17 -746 -1z m-1140 -4040 c46 -23 98 -92
111 -145 14 -59 2 -111 -37 -162 -90 -116 -244 -109 -334 15 -24 33 -29 50
-29 99 0 88 39 153 115 192 38 20 137 21 174 1z"></path>
        <path d="M5974 7425 c-103 -43 -76 -195 34 -195 61 0 102 38 102 96 0 77 -69
128 -136 99z"></path>
        <path d="M6575 7273 c-78 -31 -205 -144 -205 -182 0 -6 -5 -11 -12 -11 -6 0
-9 -2 -6 -6 3 -3 -3 -27 -13 -55 -26 -68 -26 -196 1 -282 33 -106 137 -206
257 -248 74 -25 189 -25 263 1 30 11 58 19 61 20 13 0 162 -234 220 -345 69
-132 113 -235 140 -330 42 -151 79 -315 95 -420 22 -152 22 -434 0 -590 -20
-136 -92 -425 -131 -529 -66 -174 -243 -473 -371 -626 -68 -83 -251 -263 -329
-326 -154 -125 -466 -303 -625 -357 -176 -60 -370 -105 -540 -128 -139 -18
-411 -15 -555 7 -169 26 -217 25 -249 -5 -35 -33 -44 -85 -22 -125 24 -46 44
-54 172 -76 151 -26 606 -29 766 -5 417 63 865 262 1190 529 54 45 112 92 129
105 56 44 295 325 373 438 187 273 352 691 401 1018 21 142 21 599 -1 744 -19
132 -71 335 -119 466 -61 170 -204 448 -298 582 l-86 122 27 58 c24 52 27 70
27 163 0 97 -2 110 -32 173 -41 86 -119 168 -196 207 -57 28 -67 30 -176 29
-82 0 -128 -5 -156 -16z m231 -204 c12 -4 38 -21 57 -38 109 -97 84 -267 -50
-335 -40 -20 -135 -21 -172 -1 -80 41 -133 153 -111 234 11 43 66 113 104 133
49 26 114 29 172 7z"></path>
        <path d="M4748 6861 c-33 -29 -33 -30 -38 -141 l-5 -111 -65 -23 c-84 -29
-206 -83 -248 -108 l-33 -20 -83 81 c-129 126 -106 135 -408 -167 -302 -301
-293 -279 -168 -407 l80 -82 -49 -99 c-27 -54 -61 -133 -75 -174 l-25 -75
-103 -5 c-185 -9 -178 8 -178 -410 0 -418 -8 -399 178 -409 l103 -6 28 -80
c15 -44 49 -122 75 -174 l47 -93 -80 -83 c-126 -128 -135 -105 167 -407 302
-302 279 -293 407 -167 l83 80 83 -42 c46 -23 125 -57 174 -74 l90 -33 5 -112
c5 -111 5 -112 38 -141 l32 -29 340 0 340 0 32 29 c33 29 33 30 38 141 l5 112
90 33 c50 17 128 51 174 74 l83 42 83 -80 c128 -126 105 -135 407 167 302 302
293 279 167 407 l-80 83 47 93 c26 52 60 130 75 174 l28 80 103 6 c186 10 178
-9 178 409 0 418 7 401 -178 410 l-103 5 -25 74 c-14 40 -47 119 -74 174 l-50
100 80 82 c125 128 134 106 -168 407 -301 302 -279 293 -406 168 l-82 -79 -94
46 c-52 25 -131 59 -175 74 l-80 28 -5 111 c-5 111 -5 112 -38 141 l-32 29
-340 0 -340 0 -32 -29z m572 -273 c0 -123 16 -151 97 -173 157 -45 255 -80
323 -117 140 -77 147 -80 180 -73 19 4 55 31 96 73 l65 66 141 -141 141 -141
-57 -53 c-101 -92 -106 -127 -35 -244 42 -69 93 -175 84 -175 -2 0 4 -24 15
-52 11 -29 29 -86 40 -126 28 -98 50 -112 178 -112 l92 0 0 -200 0 -200 -92 0
c-137 0 -146 -7 -193 -156 -20 -65 -39 -126 -40 -136 -6 -30 -41 -101 -84
-172 -72 -116 -66 -154 36 -245 l57 -51 -142 -142 -142 -142 -57 61 c-97 102
-110 104 -242 29 -85 -48 -167 -79 -388 -147 -59 -19 -73 -49 -73 -160 l0 -99
-200 0 -200 0 0 101 c0 97 -1 101 -29 129 -16 16 -41 32 -57 35 -103 23 -290
93 -375 141 -132 75 -145 73 -242 -30 l-57 -61 -142 142 -142 143 57 51 c102
91 108 129 36 245 -43 71 -78 142 -84 172 -1 10 -20 71 -40 136 -47 149 -56
156 -192 156 l-93 0 0 200 0 200 93 0 c127 0 148 14 177 112 12 40 28 96 37
123 9 28 16 51 15 52 -4 7 50 116 87 177 72 116 66 153 -35 245 l-57 53 141
141 141 141 65 -66 c83 -85 108 -91 184 -49 149 81 237 117 415 166 81 22 97
50 97 173 l0 92 200 0 200 0 0 -92z"></path>
        <path d="M4965 5913 c-196 -41 -385 -160 -489 -306 -215 -303 -220 -652 -13
-956 48 -71 156 -172 233 -217 299 -176 623 -162 909 41 193 137 325 398 325
645 0 166 -57 334 -166 487 -169 237 -510 368 -799 306z m290 -208 c199 -51
377 -217 438 -409 31 -99 31 -252 0 -351 -45 -142 -176 -296 -306 -360 -181
-88 -353 -88 -534 1 -130 63 -261 217 -306 358 -31 100 -31 252 0 352 60 189
237 357 433 408 73 19 201 20 275 1z"></path>
        <path d="M4180 2994 c-43 -31 -51 -47 -46 -92 7 -78 70 -117 139 -88 38 16 67
59 67 100 0 67 -104 119 -160 80z"></path>
    </g>
</svg>