<svg version="1.0" width="1024.000000pt" height="1024.000000pt" viewBox="0 0 1024.000000 1024.000000" preserveAspectRatio="xMidYMid meet" xmlns="http://www.w3.org/2000/svg">
    <defs></defs>
    <g transform="matrix(0.201746, 0, 0, -0.201476, -520.939758, 1542.880127)" fill="#000000" stroke="none" style="">
        <path d="M4924 7630 c-96 -48 -153 -132 -164 -244 -9 -96 -35 -126 -107 -126
-40 0 -54 5 -73 25 -13 14 -29 25 -36 25 -6 0 -14 6 -17 14 -3 8 -21 17 -39
21 -18 4 -36 12 -40 18 -9 15 -140 14 -174 -2 -16 -7 -45 -21 -64 -30 -54 -25
-180 -158 -209 -221 -50 -107 -26 -249 58 -339 25 -26 31 -42 31 -77 0 -67
-30 -93 -121 -103 -121 -15 -193 -61 -254 -166 -29 -49 -30 -53 -30 -190 1
-125 3 -145 24 -189 33 -71 110 -142 173 -161 28 -8 67 -15 85 -15 71 0 123
-48 123 -111 0 -33 -8 -51 -38 -88 -61 -74 -77 -115 -76 -201 0 -104 25 -154
128 -255 113 -110 113 -110 203 -125 98 -16 193 11 275 79 27 23 77 41 83 30
4 -5 14 -9 24 -9 36 0 63 -45 70 -117 4 -37 16 -86 26 -108 26 -54 90 -116
150 -145 46 -23 62 -25 185 -25 121 0 140 2 183 23 59 30 127 95 152 147 10
22 22 71 26 108 7 72 34 117 70 117 10 0 20 4 24 10 8 13 48 -5 121 -57 100
-70 237 -77 338 -18 61 35 180 164 207 222 17 36 23 67 23 123 1 83 -17 129
-80 207 -26 32 -34 51 -34 82 0 62 53 111 120 111 48 0 122 21 154 44 40 29
84 77 92 101 4 11 11 23 16 26 17 11 30 152 24 248 -5 76 -12 102 -33 140 -58
100 -132 147 -252 162 -91 10 -121 36 -121 103 0 35 6 51 31 77 84 90 108 231
57 340 -30 65 -153 193 -213 224 -22 11 -43 24 -46 29 -4 5 -38 11 -76 13 -82
6 -150 -18 -225 -79 -39 -32 -54 -38 -94 -38 -69 0 -95 31 -104 126 -11 112
-72 202 -165 245 -33 16 -65 19 -195 19 -136 0 -160 -3 -196 -20z m281 -150
c3 -5 14 -10 24 -10 35 0 64 -46 73 -116 13 -112 53 -178 148 -244 60 -42 234
-40 288 4 7 6 21 18 30 26 65 58 123 75 159 48 9 -7 48 -44 86 -81 67 -66 71
-71 71 -116 1 -38 -5 -55 -29 -85 -74 -93 -79 -106 -83 -193 -4 -73 -1 -88 23
-137 28 -57 94 -126 120 -126 8 0 15 -4 15 -9 0 -11 87 -31 136 -31 27 0 44
-9 72 -35 l37 -35 0 -112 c0 -108 -1 -114 -26 -140 -14 -15 -45 -32 -70 -38
-24 -5 -72 -17 -107 -25 -77 -18 -112 -44 -160 -115 -34 -50 -37 -62 -40 -136
-4 -87 12 -141 58 -194 86 -99 81 -134 -31 -249 -83 -85 -140 -90 -226 -22
-64 51 -114 71 -179 71 -108 0 -226 -71 -255 -152 -7 -21 -16 -38 -20 -38 -4
0 -10 -30 -14 -67 -12 -119 -54 -153 -185 -153 -131 0 -173 34 -185 153 -4 37
-10 67 -14 67 -4 0 -13 17 -20 38 -29 81 -147 152 -255 152 -65 0 -115 -20
-179 -71 -86 -68 -143 -63 -226 22 -112 115 -117 150 -31 249 63 73 81 211 38
296 -48 96 -110 141 -218 159 -84 13 -118 27 -142 59 -21 28 -23 41 -23 139
l0 108 37 34 c27 26 45 35 72 35 49 0 136 20 136 31 0 5 7 9 15 9 26 0 92 69
120 126 24 49 27 64 23 137 -4 87 -9 100 -83 193 -24 30 -30 47 -29 85 0 45 4
50 71 116 90 87 97 93 127 93 27 0 82 -28 115 -57 37 -34 47 -40 85 -53 24 -8
70 -11 120 -8 85 4 108 14 179 78 40 36 76 117 85 194 9 70 38 116 74 116 10
0 18 5 18 10 0 6 35 10 84 10 47 0 88 -4 91 -10z"></path>
        <path d="M5005 6889 c-63 -9 -205 -58 -205 -71 0 -5 -6 -8 -12 -8 -23 -1 -137
-97 -181 -152 -52 -66 -87 -115 -87 -123 0 -3 -10 -27 -21 -53 -12 -26 -28
-83 -35 -127 -7 -44 -16 -93 -20 -108 -4 -16 -2 -45 4 -65 6 -21 16 -68 22
-107 12 -75 65 -195 107 -245 57 -68 107 -120 114 -120 5 0 18 -8 28 -17 39
-36 51 -43 116 -73 37 -17 88 -33 113 -37 26 -3 50 -11 53 -16 4 -5 56 -10
119 -10 63 0 115 5 119 10 3 5 27 13 53 16 25 4 76 20 113 37 65 30 77 37 116
73 10 9 22 17 26 17 6 0 70 66 113 117 44 51 97 169 110 243 6 36 16 88 22
117 6 28 7 60 3 70 -4 10 -13 54 -20 98 -7 44 -22 101 -34 127 -11 26 -21 49
-21 53 0 8 -69 106 -103 145 -37 42 -147 130 -164 130 -7 0 -13 3 -13 8 0 13
-141 61 -210 72 -75 11 -140 11 -225 -1z m222 -180 c35 -6 63 -15 63 -19 0 -4
12 -10 28 -13 15 -3 38 -15 51 -26 13 -12 27 -21 31 -21 12 0 110 -97 110
-108 0 -6 6 -15 13 -19 36 -23 87 -181 87 -269 0 -68 -27 -194 -45 -214 -8 -9
-15 -20 -15 -25 0 -12 -50 -83 -76 -110 -29 -29 -106 -85 -117 -85 -6 0 -15
-6 -21 -14 -22 -29 -241 -66 -280 -48 -11 5 -47 16 -80 23 -32 7 -64 19 -71
26 -8 7 -18 13 -22 13 -11 0 -89 57 -117 85 -26 27 -76 98 -76 110 0 5 -6 16
-14 24 -18 21 -46 147 -46 210 0 28 5 74 11 103 12 58 57 158 77 171 6 4 12
13 12 18 0 29 165 159 202 159 10 0 18 4 18 9 0 25 177 37 277 20z"></path>
        <path d="M2830 6969 c-30 -5 -56 -14 -58 -19 -2 -6 -11 -10 -20 -10 -26 0
-100 -68 -130 -119 l-27 -46 -3 -1460 -2 -1459 25 -51 c25 -51 74 -115 89
-115 4 0 21 -9 36 -20 52 -37 148 -41 1003 -38 l818 3 -7 -74 c-3 -40 -13 -85
-20 -100 -8 -14 -14 -32 -14 -39 0 -20 -61 -142 -71 -142 -5 0 -9 -6 -9 -13 0
-7 -26 -38 -58 -70 l-58 -57 -157 0 c-86 0 -157 -4 -157 -9 0 -5 -16 -12 -36
-15 -19 -4 -38 -14 -41 -22 -3 -7 -11 -14 -17 -14 -17 0 -55 -46 -83 -98 -34
-63 -33 -183 1 -247 31 -58 84 -111 130 -130 53 -23 2259 -23 2312 0 46 19 99
72 130 130 34 64 35 184 1 247 -28 52 -66 98 -83 98 -6 0 -14 7 -17 14 -3 8
-22 18 -41 22 -20 3 -36 10 -36 15 0 5 -71 9 -157 9 l-157 0 -58 57 c-32 32
-58 63 -58 70 0 7 -4 13 -9 13 -10 0 -71 122 -71 142 0 7 -6 25 -14 39 -7 15
-17 60 -20 100 l-7 74 818 -3 c855 -3 951 1 1003 38 15 11 31 20 35 20 14 0
67 68 91 115 l24 51 -2 1459 -3 1460 -27 46 c-30 51 -104 119 -130 119 -9 0
-18 4 -20 9 -8 23 -152 31 -548 30 -294 0 -425 -4 -450 -12 -42 -15 -65 -55
-56 -102 13 -65 4 -64 518 -67 427 -3 466 -4 482 -20 10 -10 21 -18 25 -18 29
0 31 -65 31 -1225 l0 -1175 -2350 0 -2350 0 0 1175 c0 1160 2 1225 31 1225 4
0 15 8 25 18 16 16 57 17 489 22 516 5 499 3 511 65 9 47 -14 87 -56 102 -42
14 -854 16 -940 2z m4640 -2931 c0 -161 -7 -184 -60 -210 -33 -17 -163 -18
-2290 -18 -2127 0 -2257 1 -2290 18 -53 26 -60 49 -60 210 l0 142 2350 0 2350
0 0 -142z m-1962 -509 c6 -56 16 -107 21 -113 4 -6 11 -24 15 -41 11 -44 81
-186 106 -213 l21 -22 -551 0 c-501 0 -550 1 -536 16 21 20 62 92 71 124 4 14
11 27 16 30 4 3 14 28 21 55 7 28 16 52 20 56 4 3 13 51 20 107 l12 102 376 0
376 0 12 -101z m662 -569 c0 -5 6 -10 14 -10 7 0 25 -9 40 -21 22 -17 26 -29
26 -68 0 -49 -16 -74 -67 -100 -16 -8 -311 -11 -1063 -11 -1115 0 -1068 -2
-1114 49 -30 33 -25 99 8 128 15 13 34 23 42 23 8 0 14 5 14 10 0 7 357 10
1050 10 693 0 1050 -3 1050 -10z"></path>
    </g>
</svg>