<svg id="Capa_1" enable-background="new 0 0 512 512" height="512" viewBox="0 0 512 512" width="512" xmlns="http://www.w3.org/2000/svg"><g><ellipse cx="256" cy="33.082" rx="7.5" ry="7.5" transform="matrix(.987 -.16 .16 .987 -1.994 41.434)"/><path d="m84.099 391.935c-4.142 0-7.5 3.358-7.5 7.5v97.875c0 8.1 6.59 14.689 14.689 14.689h329.423c8.1 0 14.689-6.59 14.689-14.689v-451.236c0-8.1-6.59-14.689-14.689-14.689h-69.599c-2.399-3.501-6.426-5.802-10.981-5.802h-51.902c-3.442-14.948-16.67-25.583-32.229-25.583-15.56 0-28.788 10.635-32.229 25.583h-51.903c-4.555 0-8.582 2.301-10.981 5.802h-69.599c-8.1 0-14.689 6.59-14.689 14.689v318.361c0 4.142 3.358 7.5 7.5 7.5s7.5-3.358 7.5-7.5v-318.05h66.967v10h-41.431c-8.566 0-15.536 6.969-15.536 15.536v399.544c0 8.566 6.969 15.536 15.536 15.536h183.102c60.883 0 110.164-49.27 110.164-110.165v-80.376c0-4.142-3.357-7.5-7.5-7.5s-7.5 3.358-7.5 7.5v80.376c0 19.313-15.712 35.025-35.024 35.025h-9.575c-8.568 0-15.539 6.971-15.539 15.54v9.574c0 19.313-15.712 35.025-35.025 35.025h-183.103c-.295 0-.536-.24-.536-.536v-399.544c0-.295.24-.536.536-.536h41.431v27.654c0 10.534 8.57 19.104 19.104 19.104h156.66c10.534 0 19.104-8.57 19.104-19.104v-27.653h41.432c.295 0 .535.24.535.536v189.539c0 4.142 3.357 7.5 7.5 7.5s7.5-3.358 7.5-7.5v-189.54c0-8.566-6.969-15.536-15.535-15.536h-41.432v-10h66.968v450.616h-328.803v-97.565c0-4.142-3.358-7.5-7.5-7.5zm266.162 45.04v-9.575c0-.298.242-.54.539-.54h9.575c8.895 0 17.255-2.334 24.5-6.421-9.032 17.484-23.537 31.996-41.036 41.036 4.088-7.245 6.422-15.605 6.422-24.5zm-124.481-396.392c6.177 0 11.383-4.398 12.377-10.458 1.437-8.765 8.941-15.125 17.843-15.125s16.405 6.361 17.843 15.123c.993 6.061 6.198 10.459 12.377 10.459h52.214v36.187h-164.868v-36.186zm112.653 58.456c0 2.263-1.841 4.104-4.104 4.104h-156.659c-2.263 0-4.104-1.841-4.104-4.104v-7.27h164.868v7.27z"/><path d="m376.099 163.796v-21.036c0-5.303-4.314-9.617-9.617-9.617h-220.965c-5.303 0-9.618 4.314-9.618 9.617v21.036c0 5.303 4.314 9.618 9.618 9.618h17.271c4.142 0 7.5-3.358 7.5-7.5s-3.358-7.5-7.5-7.5h-11.888v-10.271h210.2v10.271h-163.312c-4.142 0-7.5 3.358-7.5 7.5s3.358 7.5 7.5 7.5h168.694c5.303 0 9.617-4.315 9.617-9.618z"/><path d="m358.552 291.923h-10.1v-60.464c0-4.817-3.919-8.735-8.735-8.735h-32.897c-4.816 0-8.735 3.918-8.735 8.735v60.464h-16.901v-80.464c0-4.817-3.918-8.735-8.734-8.735h-32.898c-4.817 0-8.735 3.918-8.735 8.735v80.464h-16.901v-40.464c0-4.817-3.918-8.735-8.735-8.735h-32.897c-4.817 0-8.735 3.918-8.735 8.735v40.464h-10.1c-4.142 0-7.5 3.358-7.5 7.5s3.358 7.5 7.5 7.5h205.106c4.143 0 7.5-3.358 7.5-7.5s-3.36-7.5-7.503-7.5zm-180.005 0v-34.2h20.368v34.2zm67.269 0v-74.2h20.368v74.2zm67.269 0v-54.2h20.368v54.2z"/><path d="m153.447 347.159h52.968c4.142 0 7.5-3.358 7.5-7.5s-3.358-7.5-7.5-7.5h-52.968c-4.142 0-7.5 3.358-7.5 7.5s3.357 7.5 7.5 7.5z"/><path d="m366.052 368.882c0-4.142-3.357-7.5-7.5-7.5h-205.105c-4.142 0-7.5 3.358-7.5 7.5s3.358 7.5 7.5 7.5h205.106c4.142 0 7.499-3.358 7.499-7.5z"/><path d="m315.441 398.106c0-4.142-3.357-7.5-7.5-7.5h-154.494c-4.142 0-7.5 3.358-7.5 7.5s3.358 7.5 7.5 7.5h154.495c4.142 0 7.499-3.358 7.499-7.5z"/><path d="m153.447 431.83c-4.142 0-7.5 3.358-7.5 7.5s3.358 7.5 7.5 7.5h102.553c4.143 0 7.5-3.358 7.5-7.5s-3.357-7.5-7.5-7.5z"/></g></svg>