<svg width="640" height="512" xmlns="http://www.w3.org/2000/svg" class="svg-inline--fa fa-laptop-house fa-w-20">

 <g>
  <title>background</title>
  <rect fill="none" id="canvas_background" height="514" width="514" y="-1" x="-1"/>
 </g>
 <g>
  <title>Layer 1</title>
  <path id="svg_1" d="m272,288l-64,0a16,16 0 0 1 -16,-16l0,-64a16,16 0 0 1 16,-16l64,0a16,16 0 0 1 16,16l0,37.12c11.11,-12.88 27,-21.12 44.8,-21.12l136.94,0l6.65,-7.53a16.51,16.51 0 0 0 3.61,-9.47a16.31,16.31 0 0 0 -4.75,-10.61l-59.25,-52.39l0,-96a16,16 0 0 0 -16,-16l-32,0a16,16 0 0 0 -16,16l0,39.3l-88.5,-78.38c-5.5,-4.92 -16.05,-8.92 -23.45,-8.92s-17.93,4 -23.47,8.92l-211.8,187.5a16.15,16.15 0 0 0 -4.78,10.58a16.4,16.4 0 0 0 3.55,9.39l18.79,21.31a16.22,16.22 0 0 0 10.66,4.78a16.51,16.51 0 0 0 9.34,-3.48l21.66,-19.12l0,164.12a32,32 0 0 0 32,32l176,0l0,-128zm357.33,160l-37.33,0l0,-160c0,-17.67 -12.89,-32 -28.8,-32l-230.4,0c-15.91,0 -28.8,14.33 -28.8,32l0,160l-37.33,0a10.67,10.67 0 0 0 -10.67,10.67l0,10.66a42.82,42.82 0 0 0 42.6,42.67l298.8,0a42.82,42.82 0 0 0 42.6,-42.67l0,-10.66a10.67,10.67 0 0 0 -10.67,-10.67zm-85.33,0l-192,0l0,-144l192,0l0,144z" fill="currentColor"/>
 </g>
</svg>