<svg xmlns="http://www.w3.org/2000/svg" xmlns:xlink="http://www.w3.org/1999/xlink" width="45" height="37" viewBox="0 0 45 37">
  <defs>
    <clipPath id="clip-Vehicle_Details">
      <rect width="45" height="37"/>
    </clipPath>
  </defs>
  <g id="Vehicle_Details" data-name="Vehicle Details" clip-path="url(#clip-Vehicle_Details)">
    <g id="Group_166" data-name="Group 166" transform="translate(46 -417)">
      <g id="Group_88" data-name="Group 88" transform="translate(-41 424)">
        <g id="Group_81" data-name="Group 81" transform="translate(21.309 2.227)">
          <path id="Path_237" data-name="Path 237" d="M195.491,34.05h-1.875V30.206a.674.674,0,0,0-.328-.574L189.5,27.357l-.035-.481c0-.059-.527-5.509-3.868-6h-3.8V19h3.927l.059.012c4.185.539,5.251,5.591,5.486,7.22l2.989,1.793a2.548,2.548,0,0,1,1.231,2.18Z" transform="translate(-181.8 -19)" fill="#233167"/>
        </g>
        <g id="Group_82" data-name="Group 82">
          <path id="Path_238" data-name="Path 238" d="M1.875,17.277H0V0H22.036V15.531H20.161V1.875H1.875Z" fill="#233167"/>
        </g>
        <g id="Group_84" data-name="Group 84" transform="translate(3.727 17.664)">
          <g id="Group_83" data-name="Group 83">
            <path id="Path_239" data-name="Path 239" d="M36.383,159.866a4.583,4.583,0,1,1,4.583-4.583A4.582,4.582,0,0,1,36.383,159.866Zm0-7.291a2.708,2.708,0,1,0,2.708,2.708A2.716,2.716,0,0,0,36.383,152.575Z" transform="translate(-31.8 -150.7)" fill="#233167"/>
          </g>
        </g>
        <g id="Group_86" data-name="Group 86" transform="translate(22.013 17.664)">
          <g id="Group_85" data-name="Group 85">
            <path id="Path_240" data-name="Path 240" d="M192.383,159.866a4.583,4.583,0,1,1,4.583-4.583A4.582,4.582,0,0,1,192.383,159.866Zm0-7.291a2.708,2.708,0,1,0,2.708,2.708A2.716,2.716,0,0,0,192.383,152.575Z" transform="translate(-187.8 -150.7)" fill="#233167"/>
          </g>
        </g>
        <path id="Path_241" data-name="Path 241" d="M252.585,147.4v4.02H248.6a2.762,2.762,0,0,1,0,1.875h5.861v-5.9Z" transform="translate(-219.461 -130.123)" fill="#233167"/>
        <g id="Group_87" data-name="Group 87" transform="translate(0 17.289)">
          <path id="Path_242" data-name="Path 242" d="M5.6,152.458a2.767,2.767,0,0,1,.164-.938H1.875V147.5H0v5.9H5.779A2.516,2.516,0,0,1,5.6,152.458Z" transform="translate(0 -147.5)" fill="#233167"/>
          <path id="Path_243" data-name="Path 243" d="M105.8,181.8H92.6a2.761,2.761,0,0,1,0,1.875h13.2a2.767,2.767,0,0,1-.164-.938A2.668,2.668,0,0,1,105.8,181.8Z" transform="translate(-81.746 -177.78)" fill="#233167"/>
        </g>
      </g>
    </g>
  </g>
</svg>
