<svg id="Capa_1" enable-background="new 0 0 512 512" height="512" viewBox="0 0 512 512" width="512" xmlns="http://www.w3.org/2000/svg"><g><path d="m492.172 429.233h-22.318c.9-2.429 1.393-5.054 1.393-7.792v-1.503c0-4.142-3.358-7.5-7.5-7.5s-7.5 3.358-7.5 7.5v1.503c0 4.136-3.364 7.5-7.5 7.5h-129.1v-121.89h37.908v16.442c0 13.964 11.36 25.324 25.324 25.324h13.471c13.963 0 25.324-11.36 25.324-25.324v-16.442h27.073c4.136 0 7.5 3.364 7.5 7.5v75.387c0 4.142 3.358 7.5 7.5 7.5s7.5-3.358 7.5-7.5v-75.387c0-12.407-10.093-22.5-22.5-22.5h-53.308v-114.44c0-12.407-10.093-22.5-22.5-22.5h-121.6c-12.407 0-22.5 10.093-22.5 22.5v33.2c0 4.142 3.358 7.5 7.5 7.5s7.5-3.358 7.5-7.5v-33.2c0-4.135 3.364-7.5 7.5-7.5h28.74v16.442c0 13.964 11.36 25.324 25.324 25.324h13.471c13.964 0 25.324-11.36 25.324-25.324v-16.442h28.74c4.136 0 7.5 3.365 7.5 7.5v114.44l-136.6-.051v-51.189c0-4.142-3.358-7.5-7.5-7.5s-7.5 3.358-7.5 7.5v51.189h-53.308c-12.407 0-22.5 10.093-22.5 22.5v114.732h-24.237v-253.072c34.331-12.543 58.904-45.53 58.904-84.149 0-49.379-40.173-89.553-89.553-89.553s-89.552 40.174-89.552 89.553c0 38.619 24.573 71.606 58.904 84.149v162.64c0 4.142 3.358 7.5 7.5 7.5s7.5-3.358 7.5-7.5v-158.607c5.083.9 10.312 1.371 15.649 1.371s10.566-.471 15.649-1.371v249.04h-31.298v-60.433c0-4.142-3.358-7.5-7.5-7.5s-7.5 3.358-7.5 7.5v60.433h-47.668c-10.933 0-19.828 8.895-19.828 19.828v9.042c0 10.933 8.895 19.828 19.828 19.828h24.714v9.111c0 12.407 10.093 22.5 22.5 22.5h377.916c12.407 0 22.5-10.093 22.5-22.5v-9.111h24.714c10.933 0 19.828-8.895 19.828-19.828v-9.042c0-10.933-8.895-19.828-19.828-19.828zm-162.974-242.679c0 5.693-4.631 10.324-10.324 10.324h-13.471c-5.693 0-10.324-4.631-10.324-10.324v-16.442h34.119zm77.475 136.939c0 5.693-4.631 10.324-10.324 10.324h-13.471c-5.693 0-10.324-4.631-10.324-10.324v-16.442h34.119zm-383.081-231.482c0-41.108 33.444-74.553 74.553-74.553s74.553 33.444 74.553 74.553-33.444 74.553-74.553 74.553-74.553-33.445-74.553-74.553zm202.296 214.989h34.119v16.493c0 5.693-4.631 10.324-10.324 10.324h-13.471c-5.693 0-10.324-4.631-10.324-10.324zm-57.858 7.5c0-4.136 3.364-7.5 7.5-7.5h35.358v16.493c0 13.964 11.36 25.324 25.324 25.324h13.471c13.964 0 25.324-11.36 25.324-25.324v-16.493h29.639v122.232h-136.616zm284.428 172.542c0 4.136-3.365 7.5-7.5 7.5h-377.916c-4.135 0-7.5-3.364-7.5-7.5v-9.111h392.916zm44.542-28.939c0 2.662-2.166 4.828-4.828 4.828h-472.344c-2.662 0-4.828-2.166-4.828-4.828v-9.042c0-2.662 2.166-4.828 4.828-4.828h472.344c2.662 0 4.828 2.166 4.828 4.828z"/><path d="m98.145 30.186c-34.09 0-61.824 27.734-61.824 61.825 0 34.09 27.734 61.824 61.824 61.824s61.824-27.734 61.824-61.824-27.734-61.825-61.824-61.825zm0 108.649c-25.819 0-46.824-21.005-46.824-46.824s21.005-46.825 46.824-46.825 46.824 21.005 46.824 46.825c0 25.819-21.005 46.824-46.824 46.824z"/><path d="m98.145 63.825c-4.142 0-7.5 3.358-7.5 7.5v24.686c0 4.142 3.358 7.5 7.5 7.5s7.5-3.358 7.5-7.5v-24.686c0-4.142-3.358-7.5-7.5-7.5z"/></g></svg>