<svg id="bold" enable-background="new 0 0 24 24" height="512" viewBox="0 0 24 24" width="512" xmlns="http://www.w3.org/2000/svg"><path d="m17.5 4c-1.331 0-2.528.675-3.203 1.806-.213.355-.097.816.259 1.028.358.212.817.096 1.028-.26.402-.672 1.118-1.074 1.916-1.074s1.514.402 1.916 1.074c.209.353.668.473 1.028.26.355-.212.472-.673.259-1.028-.675-1.131-1.872-1.806-3.203-1.806z"/><path d="m21.662 4.505c.255.323.726.381 1.053.123.325-.257.38-.729.123-1.054-1.294-1.636-3.239-2.574-5.338-2.574s-4.044.938-5.338 2.575c-.257.325-.202.796.123 1.054.327.258.798.201 1.053-.123 1.009-1.275 2.525-2.006 4.162-2.006s3.153.731 4.162 2.005z"/><path d="m2.75 21h.25v1c0 .552.447 1 1 1s1-.448 1-1v-1h14v1c0 .552.447 1 1 1s1-.448 1-1v-1h.25c1.517 0 2.75-1.233 2.75-2.75v-3.5c0-1.517-1.233-2.75-2.75-2.75h-2.75v-3.875c0-.552-.447-1-1-1s-1 .448-1 1v3.875h-13.75c-1.517 0-2.75 1.233-2.75 2.75v3.5c0 1.517 1.233 2.75 2.75 2.75zm18.25-4.5c0 .828-.672 1.5-1.5 1.5s-1.5-.672-1.5-1.5.672-1.5 1.5-1.5 1.5.672 1.5 1.5zm-11.5-1.5c.828 0 1.5.672 1.5 1.5s-.672 1.5-1.5 1.5-1.5-.672-1.5-1.5.672-1.5 1.5-1.5zm-5 0c.828 0 1.5.672 1.5 1.5s-.672 1.5-1.5 1.5-1.5-.672-1.5-1.5.672-1.5 1.5-1.5z"/></svg>